<svg xmlns="http://www.w3.org/2000/svg" viewBox="0 0 600 170" fill="none">
  <g>
    <path d="M90.0389 12.5428L13.0518 44.3991C8.77022 46.1703 8.81503 52.2455 13.124 53.9531L90.4192 84.5821C96.4966 86.9902 103.259 86.9902 109.337 84.5821L186.632 53.9531C190.941 52.2455 190.986 46.1703 186.704 44.3991L109.717 12.5428C103.411 9.9339 96.3452 9.9339 90.0389 12.5428Z" fill="#FCB400"></path>
    <path d="M106.947 98.3878V156.551C106.947 159.841 110.266 162.094 113.325 160.879L182.46 133.328C184.234 132.62 185.401 130.896 185.401 128.979V70.816C185.401 67.5258 182.082 65.2729 179.022 66.488L109.887 94.0394C108.114 94.7466 106.947 96.4703 106.947 98.3878Z" fill="#18BFFF"></path>
    <path d="M87.9888 102.165L67.4179 112.144L65.3284 113.157L23.1535 133.444C20.0642 134.937 16.0116 132.674 16.0116 129.226V71.1004C16.0116 69.853 16.6515 68.7779 17.5091 67.9704C17.8675 67.6193 18.2727 67.33 18.7043 67.0951C19.9043 66.37 21.6152 66.1767 23.1047 66.7667L87.6265 92.3242C90.9032 93.623 91.1599 98.2232 87.9888 102.165Z" fill="#F82B60"></path>
  </g>
  <g fill="#1D1F25" font-family="-apple-system, Helvetica, Arial, sans-serif" font-weight="700" font-size="72">
    <text x="215" y="108">airtable</text>
  </g>
</svg>