<svg width="168" height="52" viewBox="0 0 168 52" fill="none" xmlns="http://www.w3.org/2000/svg">
<g clip-path="url(#clip0_2635_50671)">
<path d="M86.8132 17.8899C86.8132 19.0395 85.8872 19.9655 84.7377 19.9655C83.5881 19.9655 82.6621 19.0395 82.6621 17.8899C82.6621 16.7404 83.5562 15.8143 84.7377 15.8143C85.9191 15.8463 86.8132 16.7723 86.8132 17.8899ZM78.2555 22.073C78.2555 22.2646 78.2555 22.5839 78.2555 22.5839C78.2555 22.5839 77.2656 21.3066 75.1581 21.3066C71.6775 21.3066 68.9633 23.957 68.9633 27.6292C68.9633 31.2694 71.6456 33.9517 75.1581 33.9517C77.2975 33.9517 78.2555 32.6425 78.2555 32.6425V33.1853C78.2555 33.4408 78.4471 33.6324 78.7025 33.6324H81.289V21.626C81.289 21.626 78.9261 21.626 78.7025 21.626C78.4471 21.626 78.2555 21.8495 78.2555 22.073ZM78.2555 29.7686C77.7765 30.4711 76.8185 31.0778 75.669 31.0778C73.6254 31.0778 72.0607 29.8005 72.0607 27.6292C72.0607 25.4578 73.6254 24.1805 75.669 24.1805C76.7866 24.1805 77.8084 24.8191 78.2555 25.4897V29.7686ZM83.2049 21.626H86.2704V33.6324H83.2049V21.626ZM128.995 21.3066C126.888 21.3066 125.898 22.5839 125.898 22.5839V15.8463H122.832V33.6324C122.832 33.6324 125.195 33.6324 125.419 33.6324C125.674 33.6324 125.866 33.4088 125.866 33.1853V32.6425C125.866 32.6425 126.856 33.9517 128.963 33.9517C132.444 33.9517 135.158 31.2694 135.158 27.6292C135.158 23.9889 132.444 21.3066 128.995 21.3066ZM128.484 31.0459C127.303 31.0459 126.377 30.4392 125.898 29.7367V25.4578C126.377 24.8191 127.399 24.1486 128.484 24.1486C130.528 24.1486 132.093 25.4259 132.093 27.5972C132.093 29.7686 130.528 31.0459 128.484 31.0459ZM121.236 26.5115V33.6643H118.17V26.8628C118.17 24.883 117.532 24.0847 115.807 24.0847C114.881 24.0847 113.923 24.5637 113.317 25.2662V33.6324H110.251V21.626H112.678C112.934 21.626 113.125 21.8495 113.125 22.073V22.5839C114.019 21.6579 115.201 21.3066 116.382 21.3066C117.723 21.3066 118.841 21.6898 119.735 22.4562C120.821 23.3503 121.236 24.4998 121.236 26.5115ZM102.811 21.3066C100.704 21.3066 99.7137 22.5839 99.7137 22.5839V15.8463H96.6483V33.6324C96.6483 33.6324 99.0112 33.6324 99.2348 33.6324C99.4902 33.6324 99.6818 33.4088 99.6818 33.1853V32.6425C99.6818 32.6425 100.672 33.9517 102.779 33.9517C106.26 33.9517 108.974 31.2694 108.974 27.6292C109.006 23.9889 106.292 21.3066 102.811 21.3066ZM102.3 31.0459C101.119 31.0459 100.193 30.4392 99.7137 29.7367V25.4578C100.193 24.8191 101.215 24.1486 102.3 24.1486C104.344 24.1486 105.909 25.4259 105.909 27.5972C105.909 29.7686 104.344 31.0459 102.3 31.0459ZM93.9979 21.3066C94.9239 21.3066 95.4029 21.4663 95.4029 21.4663V24.3082C95.4029 24.3082 92.8484 23.4461 91.2518 25.2662V33.6643H88.1863V21.626C88.1863 21.626 90.5493 21.626 90.7728 21.626C91.0283 21.626 91.2198 21.8495 91.2198 22.073V22.5839C91.7946 21.9133 93.04 21.3066 93.9979 21.3066ZM62.1618 32.5467C62.0021 32.1635 61.8425 31.7484 61.6828 31.3971C61.4274 30.8223 61.1719 30.2795 60.9484 29.7686L60.9164 29.7367C58.7131 24.9469 56.3502 20.0932 53.8595 15.3034L53.7637 15.1118C53.5082 14.6329 53.2528 14.1219 52.9973 13.611C52.678 13.0363 52.3587 12.4296 51.8478 11.8548C50.826 10.5775 49.3571 9.875 47.7924 9.875C46.1958 9.875 44.7589 10.5775 43.7051 11.7909C43.2262 12.3657 42.8749 12.9724 42.5556 13.5472C42.3001 14.0581 42.0447 14.569 41.7892 15.048L41.6934 15.2396C39.2347 20.0294 36.8398 24.883 34.6365 29.6728L34.6045 29.7367C34.381 30.2476 34.1255 30.7904 33.8701 31.3652C33.7104 31.7164 33.5508 32.0996 33.3911 32.5147C32.976 33.6962 32.8483 34.8138 33.0079 35.9634C33.3592 38.3583 34.9558 40.37 37.1591 41.2641C37.9893 41.6153 38.8515 41.775 39.7456 41.775C40.001 41.775 40.3203 41.7431 40.5758 41.7111C41.6296 41.5834 42.7152 41.2322 43.769 40.6255C45.0782 39.891 46.3235 38.8373 47.7286 37.3045C49.1336 38.8373 50.4108 39.891 51.6881 40.6255C52.7419 41.2322 53.8276 41.5834 54.8813 41.7111C55.1368 41.7431 55.4561 41.775 55.7115 41.775C56.6056 41.775 57.4997 41.6153 58.298 41.2641C60.5333 40.37 62.0979 38.3264 62.4492 35.9634C62.7046 34.8458 62.5769 33.7282 62.1618 32.5467ZM47.7605 34.2071C46.0362 32.0358 44.9185 29.9921 44.5354 28.2678C44.3757 27.5334 44.3438 26.8947 44.4396 26.3199C44.5034 25.809 44.695 25.362 44.9505 24.9788C45.5572 24.1166 46.579 23.5738 47.7605 23.5738C48.942 23.5738 49.9957 24.0847 50.5705 24.9788C50.826 25.362 51.0175 25.809 51.0814 26.3199C51.1772 26.8947 51.1453 27.5653 50.9856 28.2678C50.6024 29.9602 49.4848 32.0038 47.7605 34.2071ZM60.5013 35.7079C60.2778 37.3684 59.1602 38.8053 57.5955 39.444C56.8292 39.7633 55.9989 39.8591 55.1687 39.7633C54.3704 39.6675 53.5721 39.412 52.7419 38.9331C51.5923 38.2944 50.4428 37.3045 49.1016 35.8357C51.2091 33.2492 52.4864 30.8862 52.9654 28.7787C53.1889 27.7888 53.2208 26.8947 53.1251 26.0645C52.9973 25.2662 52.7099 24.5318 52.2629 23.8931C51.273 22.4562 49.6125 21.626 47.7605 21.626C45.9084 21.626 44.248 22.4881 43.2581 23.8931C42.811 24.5318 42.5236 25.2662 42.3959 26.0645C42.2682 26.8947 42.3001 27.8207 42.5556 28.7787C43.0346 30.8862 44.3438 33.2811 46.4193 35.8676C45.1101 37.3365 43.9287 38.3264 42.7791 38.965C41.9489 39.444 41.1506 39.6994 40.3523 39.7952C39.4901 39.891 38.6599 39.7633 37.9254 39.4759C36.3608 38.8373 35.2432 37.4003 35.0196 35.7399C34.9238 34.9416 34.9877 34.1433 35.307 33.2492C35.4028 32.9299 35.5625 32.6105 35.7221 32.2274C35.9457 31.7164 36.2011 31.1736 36.4566 30.6308L36.4885 30.5669C38.6918 25.809 41.0548 20.9554 43.5135 16.2295L43.6093 16.0379C43.8648 15.5589 44.1202 15.048 44.3757 14.569C44.6312 14.0581 44.9185 13.5791 45.2698 13.164C45.9404 12.3976 46.8345 11.9825 47.8243 11.9825C48.8142 11.9825 49.7083 12.3976 50.3789 13.164C50.7302 13.5791 51.0175 14.0581 51.273 14.569C51.5285 15.048 51.7839 15.5589 52.0394 16.0379L52.1352 16.2295C54.562 20.9873 56.9249 25.841 59.1283 30.5988V30.6308C59.3837 31.1417 59.6072 31.7164 59.8627 32.2274C60.0223 32.6105 60.182 32.9299 60.2778 33.2492C60.5333 34.0794 60.6291 34.8777 60.5013 35.7079Z" fill="#FF5A5F"></path>
</g>
<defs>
<clipPath id="clip0_2635_50671">
<rect width="102.214" height="31.9" fill="white" transform="translate(32.9434 9.875)"></rect>
</clipPath>
</defs>
</svg>