<svg width="168" height="52" viewBox="0 0 168 52" fill="none" xmlns="http://www.w3.org/2000/svg">
<g clip-path="url(#clip0_2635_50696)">
<path d="M44.5803 27.0337C43.7282 27.0337 42.978 26.8477 42.3298 26.4756C41.6817 26.0915 41.1775 25.5634 40.8175 24.8912C40.4574 24.2071 40.2773 23.421 40.2773 22.5327C40.2773 21.4644 40.5414 20.5282 41.0695 19.7242C41.6096 18.92 42.3718 18.3019 43.3561 17.8697C44.3523 17.4377 45.5165 17.2217 46.8489 17.2217C47.461 17.2217 47.9591 17.2636 48.3432 17.3477V16.9696C48.3432 16.0574 48.1752 15.3792 47.8391 14.9352C47.503 14.4791 46.9929 14.251 46.3088 14.251C45.2045 14.251 44.4964 14.8331 44.1843 15.9974C44.0883 16.3335 43.8903 16.4775 43.5902 16.4295L41.1416 15.9974C40.9616 15.9614 40.8355 15.8834 40.7635 15.7633C40.7035 15.6433 40.6975 15.4813 40.7455 15.2772C41.0576 14.053 41.7177 13.1048 42.7259 12.4326C43.7462 11.7484 45.0244 11.4064 46.5608 11.4064C48.3852 11.4064 49.7714 11.8985 50.7197 12.8827C51.6799 13.8669 52.16 15.3013 52.16 17.1858V26.2416C52.16 26.3736 52.112 26.4876 52.016 26.5836C51.9319 26.6676 51.8239 26.7096 51.6919 26.7096H49.3514C49.0634 26.7096 48.8834 26.5536 48.8114 26.2416L48.4513 24.5493H48.3072C47.9832 25.3414 47.4971 25.9535 46.8489 26.3856C46.2128 26.8177 45.4565 27.0337 44.5803 27.0337ZM44.2023 22.1006C44.2023 22.7368 44.3643 23.2468 44.6884 23.6309C45.0244 24.003 45.4745 24.189 46.0387 24.189C46.7828 24.189 47.3529 23.8589 47.749 23.1988C48.1451 22.5267 48.3432 21.5664 48.3432 20.3182V19.3639C48.0071 19.3039 47.689 19.2739 47.3889 19.2739C46.4047 19.2739 45.6246 19.5319 45.0485 20.0481C44.4844 20.5522 44.2023 21.2364 44.2023 22.1006ZM54.3924 12.1985C54.3924 12.0665 54.4345 11.9584 54.5185 11.8744C54.6145 11.7784 54.7285 11.7304 54.8606 11.7304H57.2372C57.3692 11.7304 57.4772 11.7724 57.5612 11.8564C57.6573 11.9404 57.7172 12.0545 57.7413 12.1985L58.1014 13.9628H58.2454C58.5695 13.1347 59.0315 12.5045 59.6317 12.0724C60.2438 11.6283 60.964 11.4063 61.7921 11.4063C62.6803 11.4063 63.4426 11.6403 64.0786 12.1084C64.7268 12.5765 65.2249 13.2427 65.573 14.1069H65.717C66.2451 13.1947 66.8394 12.5165 67.4995 12.0724C68.1596 11.6283 68.8976 11.4063 69.7138 11.4063C70.602 11.4063 71.3703 11.6463 72.0182 12.1264C72.6786 12.6065 73.1826 13.2907 73.5305 14.1788C73.8787 15.0671 74.0529 16.1173 74.0529 17.3295V26.2414C74.0529 26.3734 74.0047 26.4873 73.9087 26.5834C73.8246 26.6674 73.7166 26.7094 73.5846 26.7094H70.704C70.572 26.7094 70.4581 26.6674 70.362 26.5834C70.2779 26.4873 70.236 26.3734 70.236 26.2414V17.6174C70.236 16.7412 70.0679 16.0691 69.7319 15.601C69.3957 15.1329 68.9098 14.8988 68.2735 14.8988C67.5774 14.8988 67.0434 15.1749 66.6711 15.727C66.3111 16.2791 66.1311 17.0773 66.1311 18.1215V26.2413C66.1311 26.3733 66.083 26.4872 65.987 26.5833C65.9031 26.6673 65.7949 26.7093 65.6629 26.7093H62.7822C62.6504 26.7093 62.5363 26.6673 62.4403 26.5833C62.3562 26.4872 62.3142 26.3733 62.3142 26.2413V17.6173C62.3142 16.7411 62.1462 16.069 61.8101 15.6009C61.474 15.1328 60.988 14.8987 60.3519 14.8987C59.6557 14.8987 59.1215 15.1748 58.7494 15.7269C58.3894 16.279 58.2094 17.0772 58.2094 18.1214V26.2412C58.2094 26.3732 58.1614 26.4871 58.0654 26.5831C57.9813 26.6672 57.8732 26.7092 57.7413 26.7092H54.8606C54.7286 26.7092 54.6145 26.6672 54.5185 26.5831C54.4346 26.4871 54.3925 26.3732 54.3925 26.2412L54.3924 12.1985ZM75.925 22.5326C75.925 21.4644 76.1892 20.5282 76.7173 19.7242C77.2573 18.92 78.0194 18.3018 79.0039 17.8697C80 17.4377 81.1643 17.2216 82.4965 17.2216C83.1087 17.2216 83.6067 17.2636 83.9909 17.3476V16.9696C83.9909 16.0573 83.8227 15.3792 83.4866 14.9351C83.1506 14.479 82.6406 14.2509 81.9565 14.2509C80.8522 14.2509 80.1439 14.8331 79.832 15.9973C79.7359 16.3334 79.5379 16.4774 79.2379 16.4294L76.7893 15.9973C76.6092 15.9613 76.4831 15.8833 76.4111 15.7633C76.3513 15.6432 76.3451 15.4812 76.3932 15.2772C76.7052 14.0529 77.3653 13.1047 78.3738 12.4325C79.3938 11.7484 80.672 11.4063 82.2084 11.4063C84.0328 11.4063 85.4191 11.8984 86.3673 12.8826C87.3274 13.8668 87.8076 15.3012 87.8076 17.1857V26.2416C87.8076 26.3736 87.7597 26.4875 87.6636 26.5835C87.5795 26.6676 87.4716 26.7095 87.3396 26.7095H84.9992C84.711 26.7095 84.5309 26.5535 84.4589 26.2416L84.0988 24.5492H83.9549C83.6308 25.3413 83.1447 25.9534 82.4965 26.3855C81.8604 26.8176 81.1043 27.0337 80.228 27.0337C79.3518 27.0337 78.6257 26.8476 77.9775 26.4756C77.3293 26.0915 76.8253 25.5634 76.4652 24.8912C76.1051 24.2071 75.925 23.4209 75.925 22.5326ZM79.8501 22.1005C79.8501 22.7367 80.0119 23.2468 80.336 23.6308C80.672 24.0029 81.1222 24.189 81.6862 24.189C82.4305 24.189 83.0005 23.8589 83.3968 23.1987C83.7926 22.5266 83.9909 21.5664 83.9909 20.3181V19.3638C83.6547 19.3038 83.3367 19.2738 83.0365 19.2738C82.0525 19.2738 81.2723 19.5318 80.6961 20.048C80.132 20.5521 79.8501 21.2364 79.8501 22.1005ZM89.7522 24.063C89.7522 23.7989 89.8241 23.5708 89.9681 23.3788L96.1254 14.755H90.3641C90.2321 14.755 90.1182 14.713 90.0222 14.629C89.938 14.5329 89.8961 14.4189 89.8961 14.2869V12.1984C89.8961 12.0664 89.938 11.9584 90.0222 11.8744C90.1182 11.7784 90.2321 11.7303 90.3641 11.7303H99.8342C99.9664 11.7303 100.074 11.7784 100.158 11.8744C100.254 11.9584 100.302 12.0664 100.302 12.1984V14.3769C100.302 14.641 100.23 14.869 100.086 15.0611L94.5049 22.7307C94.8412 22.6708 95.1831 22.6408 95.5313 22.6408C96.3956 22.6408 97.1878 22.7187 97.9079 22.8748C98.64 23.0188 99.3961 23.2588 100.176 23.5949C100.452 23.715 100.59 23.9189 100.59 24.2071V26.2775C100.59 26.4695 100.53 26.6015 100.41 26.6735C100.29 26.7336 100.14 26.7276 99.9602 26.6556C99.0601 26.3195 98.2618 26.0855 97.5657 25.9534C96.8815 25.8094 96.1314 25.7373 95.3152 25.7373C94.499 25.7373 93.719 25.8094 92.9388 25.9534C92.1705 26.0975 91.3185 26.3315 90.3822 26.6556C90.2021 26.7156 90.0522 26.7156 89.9321 26.6556C89.8122 26.5835 89.7522 26.4575 89.7522 26.2775V24.063ZM101.383 19.2199C101.383 17.7557 101.665 16.4293 102.229 15.2411C102.793 14.0409 103.567 13.1047 104.551 12.4325C105.548 11.7483 106.652 11.4062 107.864 11.4062C109.076 11.4062 110.192 11.7483 111.177 12.4325C112.173 13.1046 112.953 14.0408 113.517 15.2411C114.093 16.4294 114.381 17.7557 114.381 19.2199C114.381 20.6842 114.093 22.0166 113.517 23.2167C112.953 24.405 112.173 25.3412 111.177 26.0254C110.192 26.6975 109.088 27.0336 107.864 27.0336C106.64 27.0336 105.548 26.6975 104.551 26.0254C103.567 25.3412 102.793 24.405 102.229 23.2167C101.665 22.0165 101.383 20.6843 101.383 19.2199ZM105.343 19.2199C105.343 20.7442 105.559 21.9206 105.991 22.7487C106.424 23.5649 107.048 23.973 107.864 23.973C108.68 23.973 109.31 23.5649 109.754 22.7487C110.199 21.9206 110.42 20.7443 110.42 19.2199C110.42 17.6956 110.199 16.5254 109.754 15.7092C109.31 14.881 108.68 14.4669 107.864 14.4669C107.048 14.4669 106.424 14.881 105.991 15.7092C105.559 16.5253 105.343 17.6956 105.343 19.2199ZM116.326 12.1984C116.326 12.0664 116.368 11.9584 116.452 11.8744C116.548 11.7784 116.662 11.7303 116.794 11.7303H119.17C119.302 11.7303 119.41 11.7723 119.494 11.8564C119.59 11.9404 119.65 12.0544 119.674 12.1984L120.035 13.9628H120.179C120.503 13.1466 120.977 12.5165 121.601 12.0724C122.237 11.6283 122.981 11.4063 123.833 11.4063C124.745 11.4063 125.532 11.6463 126.192 12.1264C126.864 12.6065 127.38 13.2907 127.74 14.1788C128.1 15.067 128.28 16.1172 128.28 17.3295V26.2414C128.28 26.3734 128.232 26.4873 128.136 26.5833C128.052 26.6674 127.944 26.7094 127.812 26.7094H124.932C124.799 26.7094 124.686 26.6674 124.59 26.5833C124.505 26.4873 124.463 26.3734 124.463 26.2414V17.6173C124.463 16.7411 124.283 16.069 123.923 15.6009C123.563 15.1329 123.053 14.8988 122.393 14.8988C121.661 14.8988 121.103 15.1749 120.719 15.727C120.335 16.2791 120.143 17.0772 120.143 18.1215V26.2413C120.143 26.3733 120.095 26.4872 119.999 26.5832C119.914 26.6673 119.807 26.7092 119.674 26.7092H116.794C116.662 26.7092 116.548 26.6673 116.452 26.5832C116.368 26.4872 116.326 26.3733 116.326 26.2413V12.1984Z" fill="#171D27"></path>
<path d="M50.2889 28.7787C50.0609 28.9588 50.0128 29.2588 50.1449 29.6789C50.2649 30.051 50.547 30.513 50.9911 31.0652C52.7794 33.2738 54.9098 35.1099 57.3824 36.5743C59.8551 38.0387 62.5017 39.1189 65.3223 39.815C68.1548 40.523 71.0473 40.8772 73.9999 40.8772C77.7809 40.8772 81.3817 40.3252 84.8023 39.2209C88.2229 38.1286 91.0797 36.5922 93.3722 34.6119C94.1763 33.9039 94.5785 33.3397 94.5785 32.9195C94.5785 32.7635 94.5125 32.6074 94.3805 32.4514C94.2003 32.2714 93.9842 32.2114 93.7323 32.2714C93.4802 32.3313 93.1261 32.4814 92.6699 32.7215C90.4735 33.8738 87.7971 34.7918 84.6403 35.476C81.4958 36.1724 78.2129 36.5203 74.7923 36.5203C70.5554 36.5203 66.4625 35.9443 62.5136 34.7919C58.5649 33.6397 55.0661 31.8393 52.0174 29.3909C51.5734 29.0429 51.2132 28.8207 50.9372 28.7247C50.6732 28.6287 50.457 28.6467 50.2889 28.7787Z" fill="#FF6201"></path>
<path d="M90.2913 29.6823C90.0392 29.9224 89.9732 30.1745 90.0933 30.4386C90.1772 30.6306 90.3392 30.7386 90.5794 30.7626C90.8194 30.7986 91.1614 30.7746 91.6056 30.6907C92.3257 30.5346 93.0759 30.4265 93.8559 30.3665C94.6361 30.3186 95.3143 30.3305 95.8905 30.4025C96.4667 30.4866 96.8266 30.6306 96.9708 30.8346C97.1869 31.1588 97.1088 31.8428 96.7365 32.8871C96.3767 33.9313 95.8846 34.9455 95.2602 35.9298C95.0203 36.3259 94.8763 36.6378 94.8282 36.8661C94.7803 37.0941 94.8403 37.286 95.0083 37.4421C95.1163 37.55 95.2364 37.6041 95.3684 37.6041C95.7166 37.6041 96.2206 37.2981 96.8807 36.6859C98.0689 35.6538 98.903 34.4294 99.3834 33.0132C99.6472 32.281 99.8092 31.5129 99.8693 30.7088C99.9293 29.9047 99.8393 29.3285 99.5993 28.9804C99.3712 28.6443 98.867 28.3682 98.087 28.1523C97.3187 27.9362 96.5447 27.8281 95.7645 27.8281C94.24 27.8281 92.7938 28.1883 91.4256 28.9084C90.9214 29.1845 90.5434 29.4424 90.2913 29.6823Z" fill="#FF6201"></path>
</g>
<defs>
<clipPath id="clip0_2635_50696">
<rect width="88.0019" height="29.4709" fill="white" transform="translate(40.2773 11.4062)"></rect>
</clipPath>
</defs>
</svg>