<svg width="168" height="52" viewBox="0 0 168 52" fill="none" xmlns="http://www.w3.org/2000/svg">
<g clip-path="url(#clip0_2635_50681)">
<g clip-path="url(#clip1_2635_50681)">
<path d="M58.1777 -0.125H109.695V27.6854L107.145 31.6697L109.695 35.2158V51.392H58.1777V25.1753L59.7715 23.3425L58.1777 21.5894V-0.125Z" fill="#016FD0"></path>
<path d="M68.1777 35.7756V27.6875H76.7416L77.6604 28.8853L78.6096 27.6875H109.694V35.2178C109.694 35.2178 108.881 35.7675 107.941 35.7756H90.7289L89.693 34.5007V35.7756H86.2983V33.5992C86.2983 33.5992 85.8346 33.903 84.8321 33.903H83.6767V35.7756H78.5369L77.6194 34.5522L76.6878 35.7756H68.1777Z" fill="white"></path>
<path d="M58.1777 21.5882L60.1089 17.0859H63.4487L64.5446 19.6079V17.0859H68.6963L69.3487 18.9087L69.9812 17.0859H88.6178V18.0023C88.6178 18.0023 89.5975 17.0859 91.2076 17.0859L97.2545 17.1071L98.3315 19.596V17.0859H101.806L102.762 18.5157V17.0859H106.268V25.1741H102.762L101.846 23.7397V25.1741H96.7411L96.2278 23.8991H94.8555L94.3506 25.1741H90.8888C89.5034 25.1741 88.6178 24.2764 88.6178 24.2764V25.1741H83.3984L82.3624 23.8991V25.1741H62.9539L62.4409 23.8991H61.073L60.5637 25.1741H58.1777V21.5882Z" fill="white"></path>
<path d="M60.7922 18.0859L58.1875 24.1421H59.8833L60.3639 22.9294H63.1579L63.636 24.1421H65.3692L62.767 18.0859H60.7922ZM61.7559 19.4954L62.6076 21.6145H60.9018L61.7559 19.4954Z" fill="#016FD0"></path>
<path d="M65.5488 24.1421V18.0859L67.9587 18.0949L69.3603 21.9995L70.7284 18.0859H73.119V24.1421H71.605V19.6797L70.0001 24.1421H68.6722L67.0629 19.6797V24.1421H65.5488Z" fill="#016FD0"></path>
<path d="M74.1543 24.1421V18.0859H79.0948V19.4406H75.6843V20.4765H79.0151V21.7515H75.6843V22.8273H79.0948V24.1421H74.1543Z" fill="#016FD0"></path>
<path d="M79.9707 18.0859V24.1421H81.4847V21.9906H82.1222L83.9376 24.1421H85.7878L83.7956 21.9109C84.6132 21.8419 85.4566 21.1402 85.4566 20.0507C85.4566 18.7763 84.4563 18.0859 83.3399 18.0859H79.9707ZM81.4847 19.4406H83.2154C83.6306 19.4406 83.9326 19.7654 83.9326 20.0781C83.9326 20.4804 83.5413 20.7156 83.2378 20.7156H81.4847V19.4406Z" fill="#016FD0"></path>
<path d="M87.6221 24.1421H86.0762V18.0859H87.6221V24.1421Z" fill="#016FD0"></path>
<path d="M91.2878 24.1421H90.9542C89.3396 24.1421 88.3594 22.8701 88.3594 21.1389C88.3594 19.365 89.3287 18.0859 91.3675 18.0859H93.0409V19.5203H91.3063C90.4787 19.5203 89.8933 20.1662 89.8933 21.1539C89.8933 22.3267 90.5626 22.8193 91.5269 22.8193H91.9253L91.2878 24.1421Z" fill="#016FD0"></path>
<path d="M94.5813 18.0859L91.9766 24.1421H93.6724L94.153 22.9294H96.947L97.4251 24.1421H99.1583L96.556 18.0859H94.5813ZM95.545 19.4954L96.3966 21.6145H94.6909L95.545 19.4954Z" fill="#016FD0"></path>
<path d="M99.3359 24.1421V18.0859H101.261L103.719 21.8909V18.0859H105.233V24.1421H103.37L100.85 20.2375V24.1421H99.3359Z" fill="#016FD0"></path>
<path d="M69.2148 34.7358V28.6797H74.1554V30.0344H70.7448V31.0703H74.0757V32.3452H70.7448V33.421H74.1554V34.7358H69.2148Z" fill="#016FD0"></path>
<path d="M93.4219 34.7358V28.6797H98.3624V30.0344H94.9518V31.0703H98.2668V32.3452H94.9518V33.421H98.3624V34.7358H93.4219Z" fill="#016FD0"></path>
<path d="M74.3463 34.7358L76.7519 31.7451L74.2891 28.6797H76.1965L77.6633 30.5747L79.135 28.6797H80.9677L78.5373 31.7078L80.9473 34.7358H79.0401L77.616 32.8707L76.2264 34.7358H74.3463Z" fill="#016FD0"></path>
<path d="M81.127 28.6797V34.7358H82.6808V32.8234H84.2745C85.6231 32.8234 86.6452 32.1079 86.6452 30.7167C86.6452 29.5641 85.8435 28.6797 84.4713 28.6797H81.127ZM82.6808 30.0493H84.3592C84.7949 30.0493 85.1063 30.3163 85.1063 30.7465C85.1063 31.1507 84.7964 31.4438 84.3542 31.4438H82.6808V30.0493Z" fill="#016FD0"></path>
<path d="M87.3027 28.6797V34.7358H88.8168V32.5843H89.4543L91.2696 34.7358H93.1198L91.1277 32.5046C91.9453 32.4356 92.7886 31.7339 92.7886 30.6444C92.7886 29.37 91.7883 28.6797 90.672 28.6797H87.3027ZM88.8168 30.0344H90.5474C90.9626 30.0344 91.2646 30.3591 91.2646 30.6718C91.2646 31.0742 90.8733 31.3093 90.5699 31.3093H88.8168V30.0344Z" fill="#016FD0"></path>
<path d="M99.0633 34.7358V33.421H102.093C102.542 33.421 102.736 33.1787 102.736 32.913C102.736 32.6584 102.542 32.401 102.093 32.401H100.724C99.5339 32.401 98.8711 31.6759 98.8711 30.5872C98.8711 29.6161 99.4781 28.6797 101.247 28.6797H104.195L103.558 30.0423H101.008C100.52 30.0423 100.37 30.2981 100.37 30.5424C100.37 30.7934 100.556 31.0703 100.928 31.0703H102.362C103.689 31.0703 104.265 31.8229 104.265 32.8084C104.265 33.868 103.623 34.7358 102.29 34.7358H99.0633Z" fill="#016FD0"></path>
<path d="M104.622 34.7358V33.421H107.652C108.1 33.421 108.294 33.1787 108.294 32.913C108.294 32.6584 108.101 32.401 107.652 32.401H106.283C105.093 32.401 104.43 31.6759 104.43 30.5872C104.43 29.6161 105.037 28.6797 106.805 28.6797H109.754L109.116 30.0423H106.566C106.079 30.0423 105.929 30.2981 105.929 30.5424C105.929 30.7934 106.114 31.0703 106.487 31.0703H107.921C109.248 31.0703 109.823 31.8229 109.823 32.8084C109.823 33.868 109.182 34.7358 107.849 34.7358H104.622Z" fill="#016FD0"></path>
</g>
</g>
<defs>
<clipPath id="clip0_2635_50681">
<rect width="168" height="52" fill="white"></rect>
</clipPath>
<clipPath id="clip1_2635_50681">
<rect width="51.6453" height="51.517" fill="white" transform="translate(58.1777 -0.125)"></rect>
</clipPath>
</defs>
</svg>