<svg width="168" height="52" viewBox="0 0 168 52" fill="none" xmlns="http://www.w3.org/2000/svg">
<g clip-path="url(#clip0_2635_50691)">
<path d="M102.574 13.7473C102.574 13.7473 100.794 14.4556 98.7249 16.7365C96.6554 19.0175 95.4501 21.5823 96.3421 22.2644C96.6847 22.5237 97.4749 22.5731 98.9086 21.2768C100.232 20.128 101.27 18.688 101.943 17.0699C102.869 14.8121 102.574 13.7751 102.574 13.7504M113.9 17.8508C111.6 16.6717 109.92 15.2272 108.171 14.3337C106.503 13.4772 105.424 13.1192 104.075 13.2997C103.887 13.3333 103.702 13.3797 103.52 13.4386C103.52 13.4386 104.214 15.8106 101.45 19.7952C98.6508 23.8355 96.1107 23.8077 95.3884 22.6981C94.6322 21.5268 95.6091 19.1394 97.2403 17.0143C98.9487 14.7921 101.949 12.9494 101.949 12.9494C101.949 12.9494 100.992 12.3645 98.6431 13.6964C96.3514 14.9896 92.4069 18.0761 88.7463 23.2814C85.0857 28.4868 84.3604 31.351 83.8357 33.6057C83.311 35.8604 83.7879 38.2756 86.2879 38.2756C88.788 38.2756 91.6985 34.4622 92.5195 33.1366C94.0458 30.6674 95.0412 26.8803 92.964 27.4003C91.9408 27.6565 91.1121 28.7893 90.5889 29.8803C90.2586 30.5811 90.0061 31.316 89.8358 32.0717C89.11 32.3709 88.4283 32.7676 87.8096 33.2508C87.1212 33.7606 86.4779 34.3286 85.8867 34.9483C85.8867 34.9483 85.8959 33.1458 87.3327 30.2291C88.7694 27.3124 91.4069 25.9806 92.9007 25.8556C94.2464 25.7475 95.998 26.8895 94.5134 31.1026C93.0288 35.3156 88.6491 40.4377 84.0487 40.5009C79.8032 40.5596 77.0254 35.1412 82.9344 25.6858C89.4747 15.2396 97.1462 12.0343 99.637 11.6778C102.128 11.3213 102.938 12.4201 102.938 12.4201C104.437 11.805 106.057 11.538 107.674 11.6392C110.716 11.8445 113.068 13.9973 116.173 15.5097C115.366 16.2813 114.596 17.0915 113.901 17.8508M127.565 14.3337C125.457 15.6856 122.54 16.9109 119.738 16.6486C119.028 17.3816 118.269 18.2304 117.508 19.1563C122.367 20.1178 126.625 17.1069 128.889 14.5436C129.714 13.622 130.423 12.6025 131 11.508C129.97 12.5816 128.816 13.53 127.563 14.3337M121.093 28.0254C121.129 27.9613 121.159 27.8935 121.182 27.8232C121.168 27.7119 121.116 27.6089 121.034 27.5314C120.953 27.4539 120.848 27.4066 120.736 27.3973C120.273 27.3757 119.642 27.4636 117.986 29.297C116.612 30.811 115.43 32.4882 114.466 34.2909C113.518 36.0224 113.134 37.3126 113.679 37.6459C113.856 37.7376 114.061 37.7586 114.253 37.7046C114.622 37.6166 115.04 37.2709 115.676 36.5348C115.974 36.1891 116.304 35.6999 116.699 35.1582C117.795 33.6675 120.548 28.9744 121.093 28.0254ZM103.892 30.0192C104.168 29.297 104.52 27.8787 103.788 27.3216C103.003 26.7306 101 28.118 100.989 29.5408C100.975 30.9976 102.399 31.6566 102.74 31.7492C102.935 31.8017 103.003 31.794 103.097 31.6381C103.399 31.1175 103.665 30.5766 103.892 30.0192ZM102.376 32.669C101.88 32.4398 101.417 32.1444 101 31.7909C100.581 31.44 100.232 31.0146 99.9688 30.5362C99.941 30.4899 99.9132 30.5254 99.8823 30.5671C99.8515 30.6087 99.728 30.7214 98.6601 32.2862C97.5922 33.8511 95.9517 37.0934 97.4363 37.6459C98.3869 37.9993 99.9688 36.3342 100.831 35.2308C101.419 34.4606 101.952 33.6499 102.426 32.8048C102.47 32.7106 102.426 32.689 102.378 32.669M119.218 36.4144C118.815 37.0595 118.355 38.2972 119.681 37.5271C121.303 36.5903 123.613 33.0856 123.613 33.0856H124.661C123.707 34.5517 122.646 35.9445 121.485 37.2524C119.841 39.0734 117.836 40.7278 116.424 40.5642C114.775 40.3713 115.292 38.2061 115.292 38.2061C115.292 38.2061 112.932 40.7185 111.299 40.538C109.094 40.2941 109.767 37.5688 109.767 37.5688C109.767 37.5688 107.273 40.629 105.574 40.5349C102.91 40.3806 103.58 37.1397 104.321 34.8573C104.717 33.6366 105.085 32.6782 105.085 32.6782C105.085 32.6782 104.821 32.7477 104.253 32.8326C103.956 32.8742 103.416 32.9051 103.416 32.9051C103.416 32.9051 102.307 34.8619 101.419 36.0379C100.532 37.2138 96.7604 41.2679 94.5412 40.4562C92.4887 39.7062 93.1677 36.5641 94.3622 34.0671C96.106 30.4266 101.01 25.1966 103.839 25.888C106.771 26.5994 103.906 31.9498 103.906 31.9498C103.906 31.9498 103.906 31.9699 103.936 31.9838C103.995 32.0054 104.148 32.0224 104.501 31.9529C104.867 31.8782 105.226 31.7713 105.574 31.6335C105.574 31.6335 108.521 25.4605 111.778 21.4218C115.034 17.3832 121.529 10.4278 124.079 12.1099C124.696 12.5235 124.418 13.9479 123.579 15.6763C123.201 15.7992 122.816 15.9022 122.428 15.985C122.989 14.9649 123.361 14.1053 123.472 13.505C123.857 11.4185 118.985 15.8199 115.503 20.5483C113.406 23.399 111.543 26.4145 109.932 29.5655C110.561 29.1819 111.161 28.7533 111.728 28.2831C113.281 26.9954 114.757 25.6175 116.148 24.1564C117.488 22.7851 118.744 21.335 119.911 19.8138C120.281 19.7958 120.651 19.7577 121.017 19.6996C119.745 21.4259 118.358 23.0644 116.866 24.604C115.477 26.0083 113.974 27.5192 112.668 28.6164C111.502 29.6081 110.272 30.5221 108.986 31.3526C108.986 31.3526 105.941 37.4931 107.597 37.8867C108.571 38.1212 110.494 35.1598 110.494 35.1598C110.494 35.1598 113.003 31.331 114.515 29.6041C116.579 27.2584 118.355 25.9003 120.13 25.8756C121.164 25.8571 121.773 26.9559 121.773 26.9559L122.259 26.2028H125.253C125.253 26.2028 119.662 35.6906 119.215 36.4052M127.563 14.3337C125.455 15.6856 122.539 16.9109 119.736 16.6486C119.026 17.3816 118.267 18.2304 117.506 19.1563C122.366 20.1178 126.624 17.1069 128.888 14.5436C129.713 13.6221 130.423 12.6026 131 11.508C129.97 12.5816 128.816 13.53 127.563 14.3337ZM85.5178 18.9881H82.6706L81.061 21.5885H83.9082L85.5178 18.9881ZM72.0361 27.9929C73.2475 26.3324 76.5902 20.5129 76.5902 20.5129C76.5761 20.4017 76.5242 20.2987 76.4433 20.2212C76.3624 20.1437 76.2574 20.0963 76.1457 20.0869C75.6828 20.0653 74.9111 20.2212 73.3787 22.1394C71.8463 24.0577 70.6564 25.5839 69.7891 27.1719C68.8385 28.905 68.4233 30.1273 68.9697 30.459C69.1469 30.5479 69.3506 30.5687 69.5422 30.5177C69.8971 30.4282 70.3617 30.0717 70.999 29.3387C71.2984 28.9961 71.6379 28.5346 72.0361 27.9929ZM56.758 20.1224C55.9709 19.5283 53.9693 20.9187 53.9585 22.3385C53.9462 23.7969 55.7595 24.2429 55.9941 24.2537C56.0631 24.2594 56.1322 24.2449 56.1932 24.212C56.235 24.1876 56.2684 24.151 56.2888 24.1071C56.502 23.6881 56.6936 23.2585 56.8629 22.82C57.1392 22.0978 57.4895 20.6795 56.758 20.1224ZM55.5712 25.1426C55.0285 24.973 54.5099 24.7345 54.028 24.4327C53.561 24.1283 53.1813 23.7076 52.9261 23.212C52.8983 23.1657 52.8675 23.2012 52.8397 23.2428C52.8119 23.2845 52.6514 23.4851 51.5804 25.0562C50.5094 26.6272 48.9229 29.8402 50.4091 30.3927C51.3566 30.7523 52.957 29.0732 53.8258 27.9744C54.476 27.1109 55.0768 26.2113 55.6252 25.2799C55.6607 25.1858 55.6252 25.1642 55.5728 25.1472M78.8263 26.1102H79.8696C79.8696 26.1102 74.6426 33.6721 71.6904 33.3202C70.0422 33.1273 70.5314 31.0933 70.5314 31.0933C70.5314 31.0933 68.2166 33.8033 66.09 33.2539C64.1609 32.7585 65.4063 29.5501 65.4063 29.5501C65.1872 29.638 61.0127 34.3434 58.079 33.2153C55.0095 32.0301 56.6037 28.0902 57.187 26.905C57.6824 25.9065 58.2302 24.9342 58.2302 24.9342C58.2302 24.9342 57.7595 25.067 57.4586 25.1349C57.1577 25.2028 56.7225 25.2892 56.7225 25.2892C56.7225 25.2892 55.2703 27.6488 54.3829 28.8263C53.4956 30.0038 49.7239 34.0502 47.5016 33.2446C45.2793 32.439 45.8303 29.3294 47.0788 26.8602C49.1035 22.8555 53.9076 17.9341 56.8012 18.681C59.7241 19.4264 57.3043 24.1673 57.3043 24.1673C57.3043 24.1673 57.8861 24.2429 59.2796 23.2922C61.2859 21.9234 63.9341 18.2412 66.8014 18.6733C68.1533 18.877 69.4126 20.2582 67.6903 22.8817C67.1409 23.7243 66.2196 24.4774 65.5143 23.7321C65.0745 23.2691 65.4588 22.4249 65.9202 21.8478C66.0998 21.6125 66.3345 21.425 66.6036 21.3017C66.8727 21.1785 67.168 21.1232 67.4634 21.141C67.4634 21.141 67.9372 20.0607 66.732 20.0761C65.7566 20.0946 63.2874 22.3678 61.8939 24.6642C60.6161 26.7722 58.6793 30.3634 60.6238 31.1458C62.4062 31.8649 65.7983 27.8386 67.3693 25.729C68.9403 23.6194 72.5207 18.8384 75.5238 18.6471C76.5578 18.5792 77.1735 19.5221 77.1735 19.5221L77.5208 18.9727H80.5239C80.5239 18.9727 74.8679 28.4112 74.4266 29.1257C74.0793 29.6843 73.6179 30.9405 74.8895 30.2368C76.1612 29.5331 78.8263 26.1102 78.8263 26.1102ZM77.192 41.234C74.9808 39.7033 72.333 38.9306 69.6456 39.0318C68.9182 39.0516 68.2057 39.2426 67.566 39.5893C66.9262 39.936 66.3772 40.4286 65.9634 41.0272C64.8183 39.0287 62.5544 37.8018 59.0543 37.8296C53.3983 37.8944 47.7887 40.5025 43.3441 40.4994C39.0848 40.4994 35.9782 37.8219 36.0785 33.0671C36.2653 24.7228 43.3163 17.2088 48.5788 13.8275C51.6128 11.8846 54.1499 11.3074 55.8089 11.4941C57.0188 11.6284 58.4741 13.0266 57.5558 15.0868C56.207 18.0977 54.3443 17.8508 54.4138 16.4109C54.4524 15.4742 55.0758 14.8846 55.545 14.559C55.8428 14.3538 56.3691 14.2951 56.6438 14.289C56.9108 14.0636 57.1068 12.4155 54.9462 12.9571C52.7857 13.4988 50.1622 15.6285 47.6714 18.3801C45.1806 21.1317 41.3024 26.3324 40.3441 31.794C39.8965 34.3264 40.1897 38.9453 46.1945 38.8929C51.2872 38.8512 58.7935 35.4977 65.6918 35.5672C68.3693 35.5934 70.6996 36.3157 72.516 37.436C74.3 38.5348 76.4389 40.1398 77.1982 41.2355" fill="#E61D2B"></path>
</g>
<defs>
<clipPath id="clip0_2635_50691">
<rect width="94.9217" height="29.7753" fill="white" transform="translate(36.0781 11.4609)"></rect>
</clipPath>
</defs>
</svg>