<svg width="90" height="52" viewBox="0 0 90 52" fill="none" xmlns="http://www.w3.org/2000/svg">
<g clip-path="url(#clip0_4188_13166)">
<path d="M57.3262 27.8092C53.2186 27.9438 50.6664 28.6851 50.6664 31.3907C50.6664 33.1423 52.0628 35.0412 55.6079 35.0412C60.3608 35.0412 62.8979 32.4504 62.8979 28.2013L62.8982 27.7339C61.2318 27.7339 59.177 27.7485 57.3262 27.8092ZM67.4284 33.4232C67.4284 34.7415 67.4665 36.0428 67.5816 37.2146H63.3677C63.2553 36.2497 63.2143 35.291 63.2143 34.361C60.936 37.1615 58.2263 37.9666 54.4671 37.9666C48.8916 37.9666 45.9062 35.0196 45.9062 31.6109C45.9062 26.6741 49.9666 24.9334 57.0154 24.7719C58.943 24.7279 61.1082 24.7214 62.8982 24.7214L62.8979 24.239C62.8979 20.9339 60.7787 19.575 57.1063 19.575C54.3799 19.575 52.3706 20.7032 52.1636 22.6528H47.4039C47.9076 17.7919 53.0147 16.5625 57.5051 16.5625C62.8846 16.5625 67.4284 18.4765 67.4284 24.1664V33.4232Z" fill="white"></path>
<path d="M18.1407 25.3985C17.965 21.1608 14.9063 19.575 11.6373 19.575C8.11223 19.575 5.29788 21.3588 4.80488 25.3985H18.1407ZM4.70722 28.411C4.95169 32.5227 7.7871 34.9545 11.6858 34.9545C14.387 34.9545 16.7897 33.8539 17.5943 31.4596H22.2665C21.3578 36.3177 16.1958 37.9666 11.7528 37.9666C3.67414 37.9666 0.09375 33.5175 0.09375 27.5175C0.09375 20.9125 3.79701 16.5625 11.8265 16.5625C18.2176 16.5625 22.9004 19.9072 22.9004 27.2075V28.411H4.70722Z" fill="white"></path>
<path d="M34.5208 34.8698C38.7309 34.8698 41.6117 31.8394 41.6117 27.2664C41.6117 22.6939 38.7309 19.6631 34.5208 19.6631C30.3343 19.6631 27.4295 22.6939 27.4295 27.2664C27.4295 31.8394 30.3343 34.8698 34.5208 34.8698ZM22.9003 8.59766H27.4295L27.4291 19.9768C29.649 17.3318 32.7074 16.5638 35.7178 16.5638C40.7652 16.5638 46.3714 19.9698 46.3714 27.3239C46.3714 33.4821 41.9128 37.9679 35.6337 37.9679C32.347 37.9679 29.2533 36.7889 27.3453 34.453C27.3453 35.386 27.2932 36.3264 27.1912 37.2159H22.7461C22.8234 35.7777 22.9003 33.987 22.9003 32.538V8.59766Z" fill="white"></path>
<path d="M90.4952 17.3203L76.4884 44.8282H71.4164L75.4434 37.1899L64.9023 17.3203H70.2021L77.9588 32.8446L85.6936 17.3203H90.4952Z" fill="white"></path>
</g>
<defs>
<clipPath id="clip0_4188_13166">
<rect width="90" height="52" fill="white"></rect>
</clipPath>
</defs>
</svg>