<svg width="168" height="52" viewBox="0 0 168 52" fill="none" xmlns="http://www.w3.org/2000/svg">
<path d="M83.5689 5.875C52.8667 5.875 28 14.8146 28 25.8754C28 36.9329 52.8684 45.875 83.5689 45.875C114.273 45.875 139.138 36.9325 139.138 25.8754C139.138 14.8142 114.274 5.875 83.5689 5.875Z" fill="#00095B"></path>
<path d="M83.85 44.1215C54.2849 44.1215 30.3184 35.8629 30.3184 25.6745C30.3184 15.4848 54.2853 7.22656 83.85 7.22656C113.412 7.22656 137.377 15.4844 137.377 25.6745C137.377 35.8624 113.411 44.1215 83.85 44.1215ZM83.85 8.82487C55.3237 8.82487 32.2002 16.3673 32.2002 25.6745C32.2002 34.982 55.3229 42.5253 83.85 42.5253C112.376 42.5253 135.496 34.9816 135.496 25.6745C135.496 16.3673 112.374 8.82487 83.85 8.82487Z" fill="white"></path>
<path d="M69.8865 11.8205C69.1268 11.8229 68.3632 11.8524 67.5945 11.9153C62.4888 12.3408 57.629 15.1872 57.6201 19.5087C57.6147 21.7001 59.1881 23.4758 61.6261 23.3977C64.4909 23.3015 66.8426 21.029 68.0738 18.1638C68.5409 17.0767 67.6758 16.6251 67.2642 17.251C66.5472 18.3444 65.5484 19.224 64.3733 19.7972C63.0253 20.4508 61.5845 20.2745 61.1477 19.1907C60.5336 17.6617 61.8101 15.3738 64.7232 14.2972C68.9309 12.7548 73.3333 13.7751 77.5696 14.5631C77.6301 14.5631 77.8557 14.687 77.6562 14.7899C76.8976 15.1995 76.1507 15.5325 74.9871 16.5239C74.1529 17.2312 73.0608 18.173 72.2161 19.1988C71.3777 20.2098 70.7834 21.1116 69.997 22.1113C69.8874 22.2558 69.7524 22.2492 69.7541 22.2492C67.8374 22.5697 65.9611 22.7844 64.243 23.9673C63.8877 24.21 63.7334 24.641 63.9489 24.9708C64.1426 25.2631 64.5855 25.2941 64.8929 25.0728C65.9603 24.2822 67.0592 23.9101 68.3193 23.8757C68.3743 23.879 68.4008 23.8879 68.4163 23.9215C68.426 23.9404 68.4201 23.9802 68.3975 24.0096C66.5097 26.6026 66.037 27.1886 64.6168 28.7961C63.8906 29.6223 63.1761 30.3197 62.378 31.0456C59.1537 34.0116 55.6856 33.9603 54.4414 32.1007C53.6979 30.9846 53.7959 29.813 54.2832 28.841C54.883 27.6506 56.0952 26.7781 57.1033 26.2686C57.4776 26.0796 57.5852 25.6057 57.2105 25.1739C56.9724 24.8925 56.3947 24.8425 55.9646 24.9206C54.6439 25.1621 53.0834 26.1507 52.1614 27.3402C51.1222 28.6752 50.603 30.2958 50.7774 32.1146C51.0903 35.3965 53.8194 37.2922 56.9177 37.2704C59.3831 37.2513 61.7053 36.5117 64.4996 33.7031C67.1044 31.0836 69.4774 27.1709 71.6995 23.5425C71.7692 23.4265 71.8187 23.3644 72.1564 23.3228C73.5501 23.1501 75.6081 22.9536 76.9271 22.878C77.2203 22.8621 77.2798 22.8653 77.3974 23.0102C77.7411 23.4395 78.2572 23.8039 78.6705 24.0256C78.8722 24.134 78.968 24.1881 79.1264 24.1906C79.3217 24.1948 79.4737 24.0908 79.572 23.9807C79.7119 23.8287 79.7505 23.6298 79.6749 23.5017C79.5959 23.3672 78.6761 22.8625 78.6488 22.6583C78.6287 22.5311 78.7693 22.5003 78.7693 22.5003C79.4456 22.2903 80.1492 21.8581 80.5755 21.0495C80.9943 20.2535 81.0619 19.1911 80.2957 18.6005C79.6232 18.0818 78.6071 18.1636 77.7964 18.884C77.0034 19.5834 76.7409 20.6009 76.8481 21.4927C76.8674 21.6473 76.8594 21.6993 76.6464 21.7169C75.4274 21.8135 74.2529 21.8471 72.9465 21.9155C72.8591 21.9219 72.8314 21.8647 72.8823 21.8046C74.3865 19.2171 76.6324 17.3745 79.1166 15.5599C79.2813 15.4376 79.231 15.2052 79.2243 15.0111C83.7096 15.976 88.0442 17.7718 92.6976 17.7336C94.6218 17.718 96.4641 17.4282 98.2249 16.4718C99.7737 15.6354 100.402 14.8617 100.448 14.0578C100.484 13.502 100.094 13.1508 99.5384 13.2705C94.8367 14.3399 90.3514 14.3281 85.6737 13.7678C80.3311 13.1257 75.2044 11.8038 69.8865 11.8205ZM79.2716 19.3194C79.3815 19.3253 79.4843 19.3617 79.5675 19.4323C79.8153 19.6419 79.698 20.1649 79.4476 20.527C79.1742 20.9265 78.7104 21.2713 78.2874 21.3553C78.2026 21.3708 78.1291 21.3347 78.0942 21.1487C78.0253 20.6559 78.1872 19.9961 78.719 19.5311C78.8854 19.3854 79.0885 19.3097 79.2716 19.3194ZM117.015 19.4139C116.16 19.4139 115.039 19.4154 114.148 19.4154C113.936 19.4154 113.826 19.441 113.726 19.6364C113.397 20.2601 109.391 26.2053 108.645 27.36C108.52 27.5356 108.366 27.5111 108.348 27.3107C108.273 26.6252 107.675 25.8372 106.733 25.46C106.014 25.1714 105.312 25.1194 104.582 25.2152C103.265 25.3903 102.091 26.0793 101.058 26.8551C99.5028 28.0266 98.161 29.5433 96.4283 30.6648C95.4823 31.2752 94.1873 31.8075 93.3207 31.0136C92.5365 30.2937 92.6247 28.6941 93.8248 27.4575C93.9512 27.3277 94.1029 27.436 94.079 27.5523C93.9655 28.1118 94.105 28.6681 94.5339 29.0583C95.0573 29.5225 95.8066 29.5754 96.4476 29.2654C97.2045 28.8945 97.6491 28.1773 97.7793 27.3632C97.9796 26.101 96.9979 24.9875 95.7706 24.8985C94.7729 24.8292 93.8166 25.1728 92.8849 25.9347C92.4174 26.3182 92.1513 26.6022 91.7477 27.1709C91.649 27.3112 91.4978 27.3255 91.5028 27.1184C91.5495 25.5025 90.8739 24.5931 89.5243 24.5633C88.4775 24.539 87.3582 25.1008 86.4862 25.7897C85.5302 26.55 84.6943 27.5573 83.7983 28.5041C83.687 28.6209 83.5895 28.6155 83.5584 28.3891C83.5311 27.3184 83.2592 26.2812 82.7585 25.5449C82.5817 25.2887 82.2091 25.1617 81.8957 25.3348C81.7512 25.4133 81.2477 25.6424 80.8818 25.9343C80.6999 26.0826 80.6296 26.2971 80.7094 26.5723C81.1925 28.1714 81.0862 29.9902 80.4309 31.5268C79.829 32.9331 78.6592 34.2026 77.2848 34.6319C76.3792 34.9163 75.4374 34.7772 74.8547 33.982C74.0545 32.8848 74.3781 30.977 75.5702 29.3922C76.6233 27.9976 78.1452 27.1112 79.6645 26.5403C79.8434 26.4723 79.8799 26.359 79.8295 26.2087C79.7467 25.9608 79.6153 25.6246 79.5612 25.4704C79.4221 25.1037 79.0318 25.0437 78.5559 25.0953C77.4524 25.2226 76.4574 25.5969 75.474 26.1182C72.8991 27.4833 71.6086 30.1255 71.0424 31.5394C70.7702 32.2178 70.5372 32.6421 70.236 33.0176C69.8302 33.5229 69.3207 33.9825 68.389 34.7928C68.305 34.8671 68.242 35.022 68.3126 35.1657C68.4079 35.361 68.8922 36.0381 69.0291 36.0986C69.1808 36.1726 69.3567 36.0694 69.4272 36.019C70.0791 35.5817 70.8592 34.8881 71.241 34.4177C71.3746 34.2568 71.5126 34.3245 71.5836 34.569C71.9398 35.8274 72.8725 36.8547 74.1625 37.2845C76.5232 38.0729 78.9721 36.9318 80.8204 34.9454C81.9948 33.6831 82.4187 32.871 82.869 32.3191C83.6318 31.3828 85.1373 29.2885 86.9297 27.9439C87.5871 27.4482 88.3655 27.0701 88.7569 27.3209C89.0707 27.5225 89.172 27.9908 88.6679 28.8981C86.8407 32.2027 84.1506 36.0853 83.6574 37.0275C83.5675 37.1909 83.646 37.319 83.8187 37.319C84.7752 37.3148 85.7237 37.3168 86.5919 37.3168C86.736 37.3101 86.8012 37.245 86.8735 37.1438C88.276 34.97 89.5962 32.9001 91.011 30.7607C91.0908 30.6347 91.1634 30.7324 91.1664 30.7874C91.1958 31.2835 91.3187 31.9628 91.6161 32.4089C92.1513 33.2331 92.9092 33.5871 93.7501 33.5926C94.4188 33.6001 94.7569 33.4994 95.4782 33.2327C95.9828 33.0451 96.4602 32.7914 96.898 32.4782C97.1093 32.3333 97.1461 32.5762 97.1407 32.6136C96.8164 34.3396 97.2172 36.3843 98.9495 37.2323C101.023 38.2447 103.3 36.822 104.611 35.5379C104.739 35.414 104.877 35.427 104.89 35.6934C104.918 36.184 105.142 36.7659 105.552 37.1733C106.65 38.2646 108.866 37.8323 111.09 36.1273C112.518 35.0364 114.012 33.4944 115.362 31.8617C115.412 31.7987 115.449 31.6966 115.353 31.5941C115.147 31.3811 114.849 31.1374 114.646 30.9496C114.553 30.8715 114.416 30.8938 114.338 30.9531C112.954 32.2557 111.709 33.7414 109.909 34.9701C109.302 35.3893 108.335 35.7279 107.9 35.1457C107.731 34.9197 107.751 34.6067 107.917 34.1963C108.443 32.9 116.751 20.3748 117.182 19.6372L117.183 19.6363C117.257 19.5078 117.179 19.4139 117.015 19.4139ZM105.373 27.2443C105.591 27.2424 105.795 27.2839 105.98 27.3722C107.003 27.8556 106.676 29.0288 106.219 29.95C106.203 29.9789 106.194 30.0105 106.191 30.0431C106.188 30.0757 106.191 30.1087 106.201 30.14C106.217 30.2357 106.343 30.3285 106.467 30.3727C106.51 30.3886 106.535 30.4197 106.486 30.5205C106.132 31.2703 105.808 31.7025 105.365 32.3536C104.958 32.9555 104.499 33.4248 103.943 33.8767C103.105 34.5635 101.942 35.3108 100.98 34.8084C100.552 34.5883 100.368 33.9963 100.376 33.5171C100.398 32.1687 101.002 30.7851 102.12 29.4249C103.228 28.0748 104.431 27.2526 105.373 27.2443Z" fill="white"></path>
</svg>