<svg width="168" height="52" viewBox="0 0 168 52" fill="none" xmlns="http://www.w3.org/2000/svg">
<g clip-path="url(#clip0_2635_50666)">
<path d="M50.2339 25.339H54.4385V31.2445C53.1266 31.6661 51.4701 31.8972 49.7483 31.8972C42.7699 31.8972 38.6684 25.9212 38.6684 20.085C38.6684 14.361 42.3783 10.3457 47.554 10.3457C50.8292 10.3457 52.735 11.4552 54.4398 13.0008V14.9275L57.6366 11.7306C55.6146 10.3626 52.6867 9.0625 48.5017 9.0625C39.3146 9.0625 35.1152 15.635 35.1152 21.0366C35.1152 28.7251 40.7152 33.3566 47.7524 33.3566C51.1646 33.3566 54.1943 32.8357 57.694 31.8619V25.7607C57.694 25.4487 57.8311 25.2346 58.036 25.0466L59.1404 23.9423H51.6411L50.2339 25.339Z" fill="url(#paint0_linear_2635_50666)"></path>
<path d="M69.0703 17.3203C63.7823 17.3203 60.5059 21.1842 60.5059 25.2856C60.5059 28.8258 63.1453 33.029 68.4934 33.029C73.6378 33.029 76.7941 29.1573 76.7941 24.9841C76.7941 21.0967 73.7096 17.3216 69.0703 17.3216V17.3203ZM68.1931 18.4469C71.9213 18.4469 73.5816 23.3041 73.5816 26.7685C73.5816 31.9208 69.7165 32.0226 69.2544 32.0226C67.4856 32.0226 66.2494 30.9535 65.3239 29.5515C64.5094 28.2592 63.7131 25.8587 63.7131 23.513C63.7131 21.1764 64.4781 20.0355 65.6816 19.1961C66.6658 18.5669 67.5874 18.4469 68.1918 18.4469H68.1931Z" fill="url(#paint1_linear_2635_50666)"></path>
<path d="M103.637 17.3203C99.0191 17.3203 96.5207 20.2443 96.5207 23.509C96.5207 25.9945 98.3011 28.7984 101.974 28.7984H102.904C102.904 28.7984 102.651 29.4132 102.649 30.0071C102.649 30.883 102.964 31.3751 103.632 32.1322C97.3117 32.5173 94.7715 35.0667 94.7715 37.8067C94.7715 40.2059 97.0689 42.5673 101.897 42.5673C107.614 42.5673 110.574 39.394 110.574 36.2794C110.574 34.0838 109.48 32.8802 106.71 30.8047C105.896 30.1716 105.738 29.7682 105.738 29.2944C105.738 28.6156 106.144 28.1666 106.293 27.9969C106.555 27.7201 107.009 27.4042 107.179 27.2528C108.11 26.4644 109.424 25.2974 109.424 22.9686C109.424 21.3708 108.76 19.9963 107.245 18.7092H109.094L110.483 17.3203H103.639H103.637ZM102.363 18.3594C103.201 18.3594 103.901 18.6557 104.64 19.2705C105.46 20.0094 106.769 21.9948 106.769 24.4515C106.769 27.1027 104.709 27.8285 103.594 27.8285C103.049 27.8285 102.395 27.6758 101.841 27.2972C100.612 26.4996 99.3912 24.3771 99.3912 21.8512C99.3912 19.5721 100.749 18.3594 102.363 18.3594ZM104.192 33.1387C104.545 33.1387 104.798 33.1674 104.798 33.1674C104.798 33.1674 105.629 33.7613 106.21 34.2052C107.563 35.2743 108.406 36.0914 108.406 37.5469C108.406 39.548 106.55 41.117 103.543 41.117C100.244 41.117 97.7216 39.5806 97.7216 37.0717C97.7216 34.9936 99.4499 33.2053 104.192 33.1387Z" fill="url(#paint2_linear_2635_50666)"></path>
<path d="M111.483 32.5657H117.823L118.789 31.5998L116.97 31.3727C116.481 31.3126 116.19 30.8897 116.19 30.4798V11.3288C116.19 10.9516 116.365 10.7584 116.493 10.6357L117.636 9.49219H112.229L110.822 10.8994H112.924V30.7369C112.924 31.0189 112.835 31.2108 112.645 31.4079L111.483 32.5657Z" fill="url(#paint3_linear_2635_50666)"></path>
<path d="M126.412 17.3203C122.872 17.3203 119.111 20.0185 119.111 24.8627C119.111 28.8636 121.81 33.029 126.851 33.029C128.108 33.029 129.143 32.8672 130.113 32.4221C131.153 31.943 132.154 31.165 132.885 30.1873C131.506 30.883 130.38 31.3399 128.886 31.3399C126.045 31.3399 123.307 29.2905 122.349 25.5232L132.383 21.4674C131.803 19.4011 130.169 17.3203 126.414 17.3203H126.412ZM125.757 18.4286C127.656 18.4286 129.029 19.9911 129.029 21.2142C129.029 21.6097 128.781 21.8186 128.291 22.0118L122.123 24.5063C122.123 24.5063 121.956 23.7297 121.956 22.8903C121.956 19.3698 124.501 18.4286 125.757 18.4286Z" fill="url(#paint4_linear_2635_50666)"></path>
<path d="M87.0137 17.3203C81.7257 17.3203 78.4492 21.1842 78.4492 25.2856C78.4492 28.8258 81.0887 33.029 86.4367 33.029C91.5811 33.029 94.7375 29.1573 94.7375 24.9841C94.7375 21.0967 91.6529 17.3216 87.0137 17.3216V17.3203ZM86.1365 18.4469C89.8646 18.4469 91.525 23.3041 91.525 26.7685C91.525 31.9208 87.6598 32.0226 87.1977 32.0226C85.429 32.0226 84.1928 30.9535 83.2673 29.5515C82.4528 28.2592 81.6565 25.8587 81.6565 23.513C81.6565 21.1764 82.4214 20.0355 83.625 19.1961C84.6092 18.5669 85.5308 18.4469 86.1352 18.4469H86.1365Z" fill="url(#paint5_linear_2635_50666)"></path>
</g>
<defs>
<linearGradient id="paint0_linear_2635_50666" x1="48.3075" y1="8.99713" x2="48.3075" y2="33.358" gradientUnits="userSpaceOnUse">
<stop stop-color="#196EEF"></stop>
<stop offset="0.5" stop-color="#186DEE"></stop>
<stop offset="1" stop-color="#1065E7"></stop>
</linearGradient>
<linearGradient id="paint1_linear_2635_50666" x1="68.8432" y1="17.2863" x2="68.8432" y2="33.0384" gradientUnits="userSpaceOnUse">
<stop stop-color="#DE5744"></stop>
<stop offset="0.5" stop-color="#DB4632"></stop>
<stop offset="1" stop-color="#D13D29"></stop>
</linearGradient>
<linearGradient id="paint2_linear_2635_50666" x1="103.354" y1="17.2876" x2="103.354" y2="42.5794" gradientUnits="userSpaceOnUse">
<stop stop-color="#1A6FEF"></stop>
<stop offset="0.25" stop-color="#1E72EF"></stop>
<stop offset="0.5" stop-color="#166BEC"></stop>
<stop offset="0.75" stop-color="#1267E9"></stop>
<stop offset="1" stop-color="#1063E5" stop-opacity="0.87"></stop>
</linearGradient>
<linearGradient id="paint3_linear_2635_50666" x1="114.752" y1="9.44126" x2="114.752" y2="32.5906" gradientUnits="userSpaceOnUse">
<stop stop-color="#0AA561"></stop>
<stop offset="0.5" stop-color="#009B58"></stop>
<stop offset="1" stop-color="#00914B"></stop>
</linearGradient>
<linearGradient id="paint4_linear_2635_50666" x1="126.371" y1="17.2863" x2="126.371" y2="33.0049" gradientUnits="userSpaceOnUse">
<stop stop-color="#DE5644"></stop>
<stop offset="0.5" stop-color="#DA4531"></stop>
<stop offset="1" stop-color="#CE3A28"></stop>
</linearGradient>
<linearGradient id="paint5_linear_2635_50666" x1="86.854" y1="17.318" x2="86.854" y2="33.0049" gradientUnits="userSpaceOnUse">
<stop stop-color="#FFC01A"></stop>
<stop offset="0.5" stop-color="#FFBA03"></stop>
<stop offset="1" stop-color="#FFB300"></stop>
</linearGradient>
<clipPath id="clip0_2635_50666">
<rect width="97.902" height="33.63" fill="white" transform="translate(35.0488 9)"></rect>
</clipPath>
</defs>
</svg>