<svg width="168" height="52" viewBox="0 0 168 52" fill="none" xmlns="http://www.w3.org/2000/svg">
<g clip-path="url(#clip0_2635_50661)">
<path d="M53.164 31.7048L50.5737 33.4626V33.5859H58.7763V33.4626L56.186 31.7048V13.8811L58.7763 12.1233V12H50.5737V12.1233L53.164 13.8811V21.7137H43.0186V13.8811L45.6089 12.1233V12H37.4062V12.1233L39.9966 13.8811V31.7048L37.4062 33.4626V33.5859H45.6089V33.4626L43.0186 31.7048V23.0705H53.164V31.7048ZM64.6045 33.8943C66.2388 33.8943 67.8732 32.9383 69.0142 31.6123V33.5859H74.1948V33.4626L71.8512 31.6432V22.8238C71.8512 19.8326 69.7543 18.3524 66.393 18.3524C64.6353 18.3524 62.23 18.9383 60.6882 19.5551V23.3789H60.8115C62.6618 20.8502 64.4195 19.5859 66.1772 19.5859C67.9349 19.5859 69.0142 20.8194 69.0142 23.1322V24.674L65.1904 25.5683C61.7366 26.3392 60.1948 27.696 60.1948 29.8238C60.1948 32.1674 62.1067 33.8943 64.6045 33.8943ZM65.5913 31.9207C64.2036 31.9207 63.186 30.9031 63.186 29.5154C63.186 28.1278 64.1111 27.0176 65.9305 26.6167L69.0142 25.9075V30.533C67.719 31.4582 66.5781 31.9207 65.5913 31.9207ZM86.3446 21.5595L92.512 34.0176H93.067L99.1111 20.6652L100.961 18.8458V18.7225H95.3181V18.815L97.6618 20.511L93.4988 29.6696L88.9349 20.511L91.2168 18.815V18.7225H86.4063C83.4767 18.7225 81.534 19.6167 79.9922 21.3744V18.5066L74.8115 19.7093V19.8634L77.1551 21.2203V31.6432L74.8115 33.4626V33.5859H82.9525V33.4626L79.9922 31.6432V22.8238C81.0714 21.6211 82.3666 21.0661 83.7234 21.0661C84.5869 21.0661 85.3886 21.1894 86.3446 21.5595ZM107.653 33.8943C110.49 33.8943 112.032 32.1366 113.635 30.4097L112.864 29.7004C111.292 31.1806 110.089 31.8282 108.516 31.8282C105.494 31.8282 103.243 29.0529 103.243 25.1674H113.543V24.7048C113.543 21.0661 111.384 18.3524 107.838 18.3524C103.891 18.3524 100.653 21.8987 100.653 26.2775C100.653 30.6872 103.737 33.8943 107.653 33.8943ZM110.459 23.8414H103.336C103.706 21.1586 105.402 19.6167 107.345 19.6167C109.287 19.6167 110.49 21.0044 110.49 23.2247C110.49 23.5022 110.49 23.7181 110.459 23.8414ZM115.732 20.6652L122.116 33.4009L117.49 40H120.975L128.745 20.6652L130.596 18.8458V18.7225H124.953V18.815L127.327 20.511L123.472 29.8546L118.785 20.511L121.067 18.815V18.7225H113.759V18.8458L115.732 20.6652Z" fill="#0F0E0D"></path>
</g>
<defs>
<clipPath id="clip0_2635_50661">
<rect width="93.1894" height="28" fill="white" transform="translate(37.4062 12)"></rect>
</clipPath>
</defs>
</svg>