<svg width="168" height="52" viewBox="0 0 168 52" fill="none" xmlns="http://www.w3.org/2000/svg">
<g clip-path="url(#clip0_2635_50610)">
<path fill-rule="evenodd" clip-rule="evenodd" d="M66.2333 43.6361H56.8177V30.1641H50.7057V43.6361H41V8.91406H50.7057V21.8304H56.8177V8.91406H66.2333V43.6361Z" fill="black"></path>
<path fill-rule="evenodd" clip-rule="evenodd" d="M109.37 32.9731C113.19 32.9731 116.288 29.8686 116.288 26.038C116.288 22.2085 113.19 19.1035 109.37 19.1035C105.548 19.1035 102.451 22.2085 102.451 26.038C102.451 29.8686 105.548 32.9731 109.37 32.9731ZM100.569 26.038C100.569 21.1664 104.509 17.2167 109.37 17.2167C114.23 17.2167 118.171 21.1664 118.171 26.038C118.171 30.9105 114.23 34.8601 109.37 34.8601C104.509 34.8601 100.569 30.9105 100.569 26.038ZM88.3152 26.038C89.4041 25.8998 91.2193 24.6518 91.8588 23.8551C91.6341 24.8429 91.6169 27.7018 91.8796 28.6896C91.1497 27.5632 89.4216 26.1768 88.3152 26.038ZM81.9884 16.6989C83.3714 16.6989 84.4605 18.0674 84.4605 19.6271C84.4605 21.1867 83.3714 22.5561 81.9884 22.5561H77.2349V16.6989H81.9884ZM81.971 29.7116C83.3538 29.7116 84.4431 31.0808 84.4431 32.64C84.4431 34.1998 83.3538 35.5685 81.971 35.5685H77.2176V29.7116H81.971ZM109.364 43.8125C119.05 43.8087 126.932 35.7417 126.93 26.0312C126.928 16.1159 119.05 8.4136 109.364 8.40626C99.6892 8.39926 94.7459 15.5379 93.5245 18.4193C93.536 14.0938 89.2829 8.98821 84.3079 8.98275H68.2793V43.6399L83.2234 43.6428C89.2485 43.6428 93.5358 38.4096 93.5431 33.9221C94.9184 36.7464 99.6892 43.8159 109.364 43.8125Z" fill="black"></path>
</g>
<defs>
<clipPath id="clip0_2635_50610">
<rect width="86" height="35.4414" fill="white" transform="translate(41 8.40625)"></rect>
</clipPath>
</defs>
</svg>