<svg width="168" height="52" viewBox="0 0 168 52" fill="none" xmlns="http://www.w3.org/2000/svg">
<g clip-path="url(#clip0_2635_50656)">
<path d="M35.9512 25.8307V43.6641H83.9998H132.048V25.8307V7.99738H83.9998H35.9512V25.8307ZM130.443 25.8307V42.0582L84.0251 42.0413L37.5993 42.016L37.5739 25.8054L37.557 9.60322H83.9998H130.443V25.8307Z" fill="black"></path>
<path d="M44.2344 16.655V17.1114L44.5978 17.1706C44.7922 17.1959 45.0796 17.2466 45.2317 17.272L45.5021 17.3142L45.4852 25.8252L45.4599 34.3278L44.8514 34.3954L44.2344 34.4714V34.9701V35.4688H47.4461H50.6578V34.9701V34.4714L50.0492 34.3954L49.4322 34.3278L49.4069 30.4568L49.39 26.5943H53.6159H57.8418V30.4315C57.8418 33.6347 57.8249 34.277 57.7235 34.3109C57.6559 34.3362 57.3347 34.3869 57.0051 34.4207L56.405 34.4799V34.9701V35.4688H59.7012H62.9974V34.9701V34.4714L62.4311 34.4123C62.1269 34.3785 61.8226 34.3362 61.755 34.3109C61.662 34.277 61.6451 32.7557 61.6451 25.7914V17.3142L61.9832 17.2635C62.1691 17.2382 62.4734 17.1875 62.6593 17.1621L62.9974 17.1114V16.655V16.1986H59.7012H56.405V16.655V17.1114L56.8107 17.1621C57.0304 17.1959 57.3516 17.2382 57.5291 17.2635L57.8418 17.3142V20.9401V24.5659H53.6159H49.39V20.9401V17.3142L49.7534 17.2551C50.7507 17.1029 50.6578 17.1621 50.6578 16.655V16.1986H47.4461H44.2344V16.655Z" fill="black"></path>
<path d="M67.9746 16.4333C66.2166 17.3461 66.9181 20 68.9127 20C69.5128 20 69.9777 19.7803 70.3664 19.3323C71.0003 18.5885 71.0003 17.6081 70.358 16.8644C69.7664 16.1629 68.8113 15.9938 67.9746 16.4333Z" fill="black"></path>
<path d="M74.5762 16.6127V17.0269L75.1509 17.0945L75.7172 17.1706L75.7425 25.8083L75.7594 34.4376L75.5312 34.4883C75.396 34.5137 75.134 34.556 74.9396 34.5813L74.5762 34.6405V35.0546V35.4688H77.5766H80.577V35.0546V34.6405L80.222 34.5813C80.0191 34.556 79.7571 34.5137 79.6304 34.4883L79.3937 34.4376V25.3181V16.1986H76.9849H74.5762V16.6127Z" fill="black"></path>
<path d="M86.1815 18.3459L84.4658 18.8614V20.3151V21.7773H83.1557H81.8457V22.4112V23.0451H83.105H84.3728L84.3982 28.1753C84.432 33.8888 84.432 33.8296 85.0151 34.641C85.9026 35.858 88.5564 35.9848 91.7174 34.9537L92.2414 34.7762V34.3113V33.8465L91.9879 33.9057C91.8442 33.9395 91.2441 33.9648 90.6525 33.9648C89.1143 33.9733 88.6241 33.7873 88.2522 33.0351L88.0578 32.6379L88.0324 27.8372L88.0071 23.0451H89.6214H91.2272V22.4112V21.7773H89.6214H88.0155V19.7911C88.0155 18.7008 87.9902 17.8049 87.9564 17.8134C87.9141 17.8218 87.1196 18.0585 86.1815 18.3459Z" fill="black"></path>
<path d="M99.1717 21.4025C97.904 21.5716 96.3235 22.2054 95.436 22.9069C94.3965 23.7352 93.5597 25.0537 93.171 26.4652C92.9089 27.4118 92.8413 29.5163 93.0357 30.6404C93.3146 32.2124 93.771 33.1844 94.6923 34.1141C95.791 35.2212 97.3039 35.7622 99.5943 35.8551C102.012 35.965 103.989 35.3227 105.426 33.9704C106.787 32.6942 107.421 31.2151 107.514 29.1275C107.573 27.8005 107.446 26.7948 107.083 25.7299C106.711 24.6227 106.356 24.0564 105.553 23.2535C105.004 22.6956 104.725 22.5013 104.074 22.1716C102.967 21.6307 102.113 21.4363 100.651 21.3941C100 21.3772 99.3323 21.3856 99.1717 21.4025ZM100.693 22.4505C101.682 22.6365 102.358 23.2028 102.848 24.2677C103.381 25.4171 103.567 26.5328 103.567 28.6542C103.567 32.8885 102.536 34.7987 100.228 34.8071C99.3915 34.8156 98.783 34.5789 98.2674 34.038C97.194 32.9393 96.67 30.3868 96.8898 27.3949C97.1095 24.3945 98.0138 22.7717 99.6197 22.4505C100.118 22.3576 100.194 22.3576 100.693 22.4505Z" fill="black"></path>
<path d="M118.035 21.5317C116.978 21.6669 115.677 22.2501 114.57 23.0868C114.232 23.3404 113.91 23.5517 113.868 23.5517C113.826 23.5517 113.792 23.1544 113.792 22.6642V21.7768H111.383H108.975V22.2332V22.6896L109.38 22.7403C109.6 22.7741 109.879 22.8164 110.014 22.8417L110.242 22.8924V28.665V34.4376L109.761 34.4883C108.975 34.5813 108.975 34.5813 108.975 35.0546V35.4688H112.017H115.06V35.0462C115.06 34.8095 115.035 34.6236 115.001 34.6151C114.958 34.6067 114.688 34.5644 114.384 34.5052L113.834 34.4123V29.5102V24.6082L114.257 24.3292C114.494 24.1771 114.984 23.932 115.356 23.7883C115.939 23.5517 116.133 23.5179 116.793 23.5094C117.629 23.5094 118.018 23.6531 118.458 24.118C119.125 24.8195 119.218 25.6055 119.184 30.5667L119.159 34.4123L118.61 34.5052C118.305 34.5644 118.035 34.6067 118.001 34.6151C117.959 34.6236 117.934 34.8095 117.934 35.0462V35.4688H120.976H124.019V35.0546C124.019 34.5813 124.019 34.5813 123.241 34.4968L122.76 34.4376L122.734 29.5187C122.709 24.6504 122.7 24.5997 122.506 24.0165C122.244 23.2136 121.99 22.7995 121.483 22.3431C120.985 21.8951 120.351 21.6331 119.506 21.5232C118.829 21.4303 118.77 21.4303 118.035 21.5317Z" fill="black"></path>
<path d="M65.8711 22.1909V22.6051L66.2768 22.6558C66.4965 22.6896 66.7754 22.7319 66.9107 22.7572L67.1389 22.8079L67.122 28.6059L67.0966 34.4123L66.5472 34.5052C66.243 34.5644 65.9725 34.6067 65.9387 34.6151C65.8964 34.6236 65.8711 34.8095 65.8711 35.0462V35.4688H68.9222H71.9649L71.9395 35.08C71.9057 34.6151 71.8465 34.5644 71.1788 34.4968L70.6886 34.4461V28.1072V21.7768H68.2799H65.8711V22.1909Z" fill="black"></path>
</g>
<defs>
<clipPath id="clip0_2635_50656">
<rect width="96.0972" height="35.6667" fill="white" transform="translate(35.9512 8)"></rect>
</clipPath>
</defs>
</svg>