<svg width="168" height="52" viewBox="0 0 168 52" fill="none" xmlns="http://www.w3.org/2000/svg">
<g clip-path="url(#clip0_2635_50621)">
<path fill-rule="evenodd" clip-rule="evenodd" d="M63.9749 22.6499C63.9749 22.4095 64.1384 22.281 64.3437 22.281C64.6912 22.281 65.2159 22.6499 65.5117 23.3877C65.4057 23.3877 65.246 23.4198 65.139 23.4198C64.5063 23.4198 63.9749 23.119 63.9749 22.6499ZM25.6974 22.6499C25.6974 22.4095 25.8541 22.281 26.0682 22.281C26.407 22.281 26.9102 22.6499 27.2022 23.3877C26.2249 23.3877 25.6974 23.1764 25.6974 22.6499ZM33.0802 18.8373C33.0802 14.8904 33.8491 14.284 34.0876 14.284C34.5119 14.284 34.5625 14.5488 34.5625 16.0623C34.5625 17.6177 33.8997 19.653 33.0802 20.7704V18.8373ZM59.955 22.7287C59.4994 23.3633 59.1306 24.2646 59.1306 25.4258C59.1306 27.6499 60.3988 29.7728 62.8633 29.7728C65.246 29.7728 66.9153 27.8903 66.9153 25.2652C66.9153 24.5031 66.8861 24.398 66.8365 24.0817C67.3903 23.8403 67.8682 23.4714 68.24 23.1764C68.5563 22.938 68.7929 22.8046 68.9817 22.8046C69.2192 22.8046 69.3233 22.9905 69.3233 23.3341V28.5279C69.3233 29.3737 69.591 29.7728 70.25 29.7728C70.8573 29.7728 71.2846 29.3464 71.5211 28.8442C72.3971 27.0172 73.6654 24.5819 74.2192 23.6573C74.3526 23.4451 74.4606 23.2825 74.5365 23.2825C74.6426 23.2825 74.6971 23.3633 74.6971 23.7059V27.8407C74.6971 29.0038 75.2286 29.7728 76.3888 29.7728C77.6094 29.7728 78.2148 28.6038 79.2815 26.8041C79.3322 26.696 79.3545 26.6191 79.3545 26.5422C79.3545 26.3038 79.1482 26.1685 78.935 26.1685C78.6946 26.1685 78.5623 26.4089 77.77 27.28C77.6094 27.4455 77.4536 27.6752 77.1597 27.6752C77.0545 27.6752 76.9738 27.5477 76.9738 27.3861V22.7511C76.9738 21.5062 76.417 21.004 75.7026 21.004C75.1215 21.004 74.6426 21.2424 74.1404 21.9841C73.24 23.3108 72.3134 25.1922 71.8122 26.1403C71.7557 26.2512 71.6798 26.4089 71.6282 26.4089C71.5727 26.4089 71.5494 26.3271 71.5494 26.1403V22.7511C71.5494 21.7739 71.2846 21.004 70.25 21.004C69.1637 21.004 68.6089 21.7466 67.8147 22.3014C67.3114 22.6762 66.8627 22.938 66.5201 23.0966C65.9877 21.7466 65.0095 21.0624 64.189 21.0828C63.3655 21.111 62.7835 21.6172 62.7835 22.4649C62.7835 23.3341 63.3159 23.9395 64.0274 24.2092C64.4226 24.3678 64.7944 24.398 65.3268 24.398C65.4864 24.398 65.6441 24.398 65.7463 24.3678C65.8028 24.6316 65.7775 25.0073 65.7775 25.2974C65.7775 26.5968 65.0095 27.8903 63.5816 27.8903C62.0953 27.8903 61.2252 26.4605 61.2252 24.8204C61.2252 23.5745 61.5941 22.5438 62.1985 21.8313C62.4428 21.5646 62.6248 21.403 62.6248 21.1587C62.6248 21.0351 62.4428 21.004 62.2822 21.004C61.2738 21.004 60.1652 21.4556 59.3992 21.8508C58.3879 22.3812 57.1994 23.2582 56.2183 24.1313C55.7424 23.0694 55.1603 22.1428 54.8673 21.4254C54.7622 21.1344 54.6853 20.7966 54.4731 20.7966C54.2853 20.7966 54.2035 20.9816 54.0741 21.3466C53.5991 22.7511 51.0557 26.8586 50.5 27.4144C50.4474 27.4903 50.3705 27.574 50.3452 27.574C50.2878 27.574 50.2576 27.5477 50.2576 27.3861V22.7511C50.2576 21.5062 49.7554 21.004 49.0721 21.004C48.4871 21.004 47.9858 21.2424 47.5099 21.9841C46.6378 23.3108 45.5739 25.2438 45.0726 26.1948C44.9919 26.3583 44.912 26.4089 44.8848 26.4089C44.8585 26.4089 44.8371 26.3038 44.8371 26.1403V22.7511C44.8371 21.5062 44.3319 21.004 43.6428 21.004C43.0588 21.004 42.5059 21.221 42.0533 21.9841C40.9437 23.8665 39.0915 26.7525 38.7469 27.2255C38.6934 27.3073 38.6399 27.3608 38.5873 27.3861C38.5347 27.3861 38.5046 27.3345 38.5046 27.2031V22.7511C38.5046 21.5062 38.0023 21.004 37.3181 21.004C36.3632 21.004 35.8366 21.8819 35.4892 22.4348C35.0103 23.2027 34.3776 24.2374 33.8763 25.1922C33.5308 25.8307 33.2378 26.4089 33.1308 26.4089C33.0802 26.4089 33.0802 26.1685 33.0802 25.7198V22.1729C34.7455 20.3158 35.7792 18.0411 35.7792 15.5523C35.7792 14.1196 35.1466 13.3292 34.1693 13.3292C32.3385 13.3292 30.9388 16.1898 30.9388 19.5761V22.3296C30.0901 22.8601 29.2949 23.119 28.3137 23.3108C27.8125 21.8313 26.7515 21.0624 25.9076 21.0828C25.0891 21.111 24.5041 21.6172 24.5041 22.4649C24.5041 23.8665 25.8814 24.4486 27.0961 24.4486H27.4406C27.4922 24.7153 27.4922 25.0073 27.4922 25.2974C27.4922 26.5968 26.7252 27.8903 25.2993 27.8903C23.8179 27.8903 22.9419 26.4605 22.9419 24.8204C22.9419 23.5745 23.3088 22.5438 23.9181 21.8313C24.1586 21.5646 24.3454 21.3261 24.3454 21.1587C24.3454 21.0351 24.1586 21.004 23.998 21.004C22.9925 21.004 20.7713 22.3598 18.1219 25.0073C17.8873 22.8883 17.6206 20.821 17.6206 18.8081C17.6206 16.5587 18.0655 14.6481 18.1715 14.0972C18.2251 13.7555 18.2582 13.5404 18.2582 13.3847C18.2582 13.1715 18.1453 13.0625 17.8601 13.0625C15.7129 13.0625 11 16.4799 11 21.5899C11 25.2136 12.3267 26.9627 14.6257 29.2131C13.2299 31.4644 12.1106 34.1372 12.1106 36.5209C12.1106 38.2388 12.5116 39.5402 13.7789 39.5402C16.4273 39.5402 18.411 34.036 18.411 29.9557C18.411 28.7391 18.3623 27.5195 18.2582 26.3038C19.2344 25.2652 20.7441 23.8665 21.112 23.7342C20.9543 24.2909 20.8482 24.8749 20.8482 25.4258C20.8482 27.6499 22.1214 29.7728 24.581 29.7728C26.8878 29.7728 28.632 27.8903 28.632 25.2652C28.632 24.9265 28.6048 24.6316 28.5814 24.3153C29.4243 24.1566 30.2 23.9395 30.9388 23.4967V28.8179C30.9388 29.5031 31.4118 29.7728 31.8625 29.7728C32.4747 29.7728 32.792 29.3464 33.2378 28.3721C33.6126 27.574 34.6151 25.749 35.2234 24.6598C35.7033 23.8101 35.968 23.2582 36.1812 23.2582C36.2308 23.2582 36.2873 23.3877 36.2873 23.7059V28.2349C36.2873 29.4535 36.9229 29.7728 37.4728 29.7728C38.0023 29.7728 38.3488 29.4817 38.6934 29.0038C40.0716 27.0425 41.5297 24.7153 42.1078 23.7059C42.2149 23.5249 42.3463 23.3877 42.4534 23.3877C42.5566 23.3877 42.6101 23.4451 42.6101 23.7848V28.5279C42.6101 29.3737 42.8748 29.7728 43.5396 29.7728C44.145 29.7728 44.5412 29.3464 44.7777 28.8442C45.6576 27.0172 46.9512 24.6063 47.5099 23.6573C47.6393 23.4451 47.7727 23.2582 47.8515 23.2582C47.9615 23.2582 47.9858 23.3877 47.9858 23.7342V28.2349C47.9858 29.4535 48.6214 29.7728 49.1811 29.7728C49.916 29.7728 50.3978 29.2403 50.8737 28.6339C51.7419 27.4903 53.0141 25.4599 53.783 24.1566C54.0497 24.5819 54.3378 25.0861 54.5802 25.6409C53.9436 26.4089 53.3071 27.28 53.3071 28.2057C53.3071 29.1868 53.9952 29.7728 54.7106 29.7728C55.9263 29.7728 57.0369 28.6038 57.0369 26.9919C57.0369 26.3583 56.8549 25.6945 56.6184 25.0608C57.6978 23.9989 58.9972 22.9662 59.955 22.7287ZM16.3456 28.5006C16.5597 29.9022 16.7456 31.2824 16.7456 32.3657C16.7456 34.9032 15.9008 37.8699 14.4437 37.8456C13.8811 37.8456 13.408 37.283 13.3847 36.3087C13.3311 33.1347 14.8398 30.4327 16.3456 28.5006ZM54.9997 26.696C55.1603 27.1516 55.2411 27.5195 55.2411 27.8903C55.2411 28.3147 55.0815 28.7391 54.7885 28.7391C54.5802 28.7391 54.368 28.5006 54.368 28.1288C54.368 27.7307 54.7106 27.0951 54.9997 26.696ZM17.3014 14.0689C17.3014 14.2305 16.9305 14.9693 16.4556 16.295C15.9523 17.6693 15.4725 19.6267 15.4725 21.9841C15.4725 23.3877 15.82 25.2438 16.1129 27.1224L15.2652 28.2651C13.9132 26.6191 13.0674 24.7688 13.0674 21.5899C13.0674 17.0902 15.7937 13.9687 17.1943 13.9687C17.278 13.9687 17.3014 13.992 17.3014 14.0689Z" fill="#D51900"></path>
<path fill-rule="evenodd" clip-rule="evenodd" d="M141.623 22.6499C141.623 22.4095 141.778 22.281 141.992 22.281C142.333 22.281 142.864 22.6499 143.154 23.3877C143.051 23.3877 142.892 23.4198 142.781 23.4198C142.151 23.4198 141.623 23.119 141.623 22.6499ZM103.338 22.6499C103.338 22.4095 103.499 22.281 103.708 22.281C104.053 22.281 104.561 22.6499 104.846 23.3877C103.867 23.3877 103.338 23.1764 103.338 22.6499ZM110.725 18.8373C110.725 14.8904 111.489 14.284 111.731 14.284C112.153 14.284 112.207 14.5488 112.207 16.0623C112.207 17.6177 111.543 19.653 110.725 20.7704V18.8373ZM93.9955 28.5006C94.2009 29.9022 94.3936 31.2824 94.3936 32.3657C94.3936 34.9032 93.5478 37.8699 92.0878 37.8456C91.5329 37.8456 91.056 37.283 91.0297 36.3087C90.9752 33.1347 92.4868 30.4327 93.9955 28.5006ZM132.649 26.696C132.809 27.1516 132.885 27.5195 132.885 27.8903C132.885 28.3147 132.727 28.7391 132.435 28.7391C132.226 28.7391 132.008 28.5006 132.008 28.1288C132.008 27.7307 132.356 27.0951 132.649 26.696ZM94.9435 14.0689C94.9435 14.2305 94.5766 14.9693 94.0967 16.295C93.5974 17.6693 93.1175 19.6267 93.1175 21.9841C93.1175 23.3877 93.4709 25.2438 93.7599 27.1224L92.9102 28.2651C91.5621 26.6191 90.7105 24.7688 90.7105 21.5899C90.7105 17.0902 93.4426 13.9687 94.8433 13.9687C94.9202 13.9687 94.9435 13.992 94.9435 14.0689ZM90.5294 27.3073C91.0025 27.9429 91.5865 28.5512 92.2746 29.2131C90.8701 31.4644 89.7595 34.1372 89.7595 36.5209C89.7595 38.2388 90.1596 39.5402 91.4307 39.5402C94.0753 39.5402 96.059 34.036 96.059 29.9557C96.059 28.7391 96.0074 27.5195 95.9013 26.3038C96.8824 25.2652 98.3862 23.8665 98.7619 23.7342C98.6023 24.2909 98.4923 24.8749 98.4923 25.4258C98.4923 27.6499 99.7645 29.7728 102.229 29.7728C104.53 29.7728 106.277 27.8903 106.277 25.2652C106.277 24.9265 106.253 24.6316 106.224 24.3153C107.072 24.1566 107.845 23.9395 108.582 23.4967V28.8179C108.582 29.5031 109.056 29.7728 109.503 29.7728C110.12 29.7728 110.437 29.3464 110.885 28.3721C111.254 27.574 112.262 25.749 112.872 24.6598C113.347 23.8101 113.612 23.2582 113.829 23.2582C113.879 23.2582 113.928 23.3877 113.928 23.7059V28.2349C113.928 29.4535 114.562 29.7728 115.119 29.7728C115.65 29.7728 115.991 29.4817 116.342 29.0038C117.715 27.0425 119.173 24.7153 119.754 23.7059C119.86 23.5249 119.994 23.3877 120.097 23.3877C120.2 23.3877 120.258 23.4451 120.258 23.7848V28.5279C120.258 29.3737 120.52 29.7728 121.181 29.7728C121.79 29.7728 122.187 29.3464 122.428 28.8442C123.302 27.0172 124.598 24.6063 125.152 23.6573C125.287 23.4451 125.419 23.2582 125.501 23.2582C125.605 23.2582 125.634 23.3877 125.634 23.7342V28.2349C125.634 29.4535 126.264 29.7728 126.818 29.7728C127.565 29.7728 128.042 29.2403 128.515 28.6339C129.388 27.4903 130.662 25.4599 131.429 24.1566C131.691 24.5819 131.986 25.0861 132.226 25.6409C131.584 26.4089 130.955 27.28 130.955 28.2057C130.955 29.1868 131.635 29.7728 132.356 29.7728C133.571 29.7728 134.682 28.6038 134.682 26.9919C134.682 26.3583 134.498 25.6945 134.26 25.0608C135.344 23.9989 136.642 22.9662 137.595 22.7287C137.145 23.3633 136.775 24.2646 136.775 25.4258C136.775 27.6499 138.047 29.7728 140.509 29.7728C142.892 29.7728 144.555 27.8903 144.555 25.2652C144.555 24.5031 144.531 24.398 144.482 24.0817C145.031 23.8403 145.511 23.4714 145.886 23.1764C146.197 22.938 146.44 22.8046 146.622 22.8046C146.861 22.8046 146.973 22.9905 146.973 23.3341V28.5279C146.973 29.3737 147.234 29.7728 147.896 29.7728C148.502 29.7728 148.929 29.3464 149.168 28.8442C150.036 27.0172 151.309 24.5819 151.863 23.6573C151.996 23.4451 152.104 23.2825 152.184 23.2825C152.292 23.2825 152.343 23.3633 152.343 23.7059V27.8407C152.343 29.0038 152.868 29.7728 154.036 29.7728C155.257 29.7728 155.865 28.6038 156.926 26.8041C156.975 26.696 157.001 26.6191 157.001 26.5422C157.001 26.3038 156.788 26.1685 156.578 26.1685C156.342 26.1685 156.206 26.4089 155.414 27.28C155.257 27.4455 155.096 27.6752 154.806 27.6752C154.697 27.6752 154.622 27.5477 154.622 27.3861V22.7511C154.622 21.5062 154.059 21.004 153.345 21.004C152.766 21.004 152.292 21.2424 151.786 21.9841C150.884 23.3108 149.96 25.1922 149.461 26.1403C149.404 26.2512 149.327 26.4089 149.27 26.4089C149.214 26.4089 149.193 26.3271 149.193 26.1403V22.7511C149.193 21.7739 148.929 21.004 147.896 21.004C146.808 21.004 146.255 21.7466 145.462 22.3014C144.954 22.6762 144.507 22.938 144.159 23.0966C143.635 21.7466 142.652 21.0624 141.835 21.0828C141.01 21.111 140.432 21.6172 140.432 22.4649C140.432 23.3341 140.962 23.9395 141.671 24.2092C142.069 24.3678 142.439 24.398 142.976 24.398C143.131 24.398 143.284 24.398 143.397 24.3678C143.449 24.6316 143.422 25.0073 143.422 25.2974C143.422 26.5968 142.652 27.8903 141.221 27.8903C139.739 27.8903 138.869 26.4605 138.869 24.8204C138.869 23.5745 139.237 22.5438 139.844 21.8313C140.085 21.5646 140.272 21.403 140.272 21.1587C140.272 21.0351 140.085 21.004 139.926 21.004C138.925 21.004 137.809 21.4556 137.041 21.8508C136.034 22.3812 134.843 23.2582 133.866 24.1313C133.388 23.0694 132.809 22.1428 132.514 21.4254C132.405 21.1344 132.333 20.7966 132.113 20.7966C131.93 20.7966 131.85 20.9816 131.719 21.3466C131.241 22.7511 128.702 26.8586 128.146 27.4144C128.092 27.4903 128.014 27.574 127.985 27.574C127.936 27.574 127.907 27.5477 127.907 27.3861V22.7511C127.907 21.5062 127.407 21.004 126.712 21.004C126.129 21.004 125.634 21.2424 125.152 21.9841C124.277 23.3108 123.221 25.2438 122.718 26.1948C122.64 26.3583 122.562 26.4089 122.537 26.4089C122.506 26.4089 122.479 26.3038 122.479 26.1403V22.7511C122.479 21.5062 121.98 21.004 121.291 21.004C120.707 21.004 120.147 21.221 119.701 21.9841C118.586 23.8665 116.736 26.7525 116.389 27.2255C116.342 27.3073 116.286 27.3608 116.229 27.3861C116.183 27.3861 116.152 27.3345 116.152 27.2031V22.7511C116.152 21.5062 115.65 21.004 114.959 21.004C114.003 21.004 113.478 21.8819 113.131 22.4348C112.655 23.2027 112.024 24.2374 111.518 25.1922C111.177 25.8307 110.885 26.4089 110.779 26.4089C110.725 26.4089 110.725 26.1685 110.725 25.7198V22.1729C112.395 20.3158 113.424 18.0411 113.424 15.5523C113.424 14.1195 112.791 13.3292 111.808 13.3292C109.984 13.3292 108.582 16.1898 108.582 19.5761V22.3296C107.732 22.8601 106.938 23.119 105.957 23.3108C105.458 21.8313 104.398 21.0624 103.556 21.0828C102.729 21.111 102.149 21.6172 102.149 22.4649C102.149 23.8665 103.522 24.4486 104.742 24.4486H105.089C105.137 24.7153 105.137 25.0073 105.137 25.2973C105.137 26.5968 104.372 27.8903 102.941 27.8903C101.458 27.8903 100.589 26.4605 100.589 24.8204C100.589 23.5745 100.959 22.5438 101.563 21.8313C101.801 21.5646 101.988 21.3261 101.988 21.1587C101.988 21.0351 101.801 21.004 101.644 21.004C100.637 21.004 98.4144 22.3598 95.764 25.0073C95.5314 22.8883 95.2637 20.821 95.2637 18.8081C95.2637 16.5587 95.7134 14.6481 95.8195 14.0972C95.8721 13.7555 95.9013 13.5404 95.9013 13.3847C95.9013 13.1715 95.7932 13.0625 95.5071 13.0625C93.3618 13.0625 88.6489 16.4799 88.6489 21.5899C88.6489 23.6787 89.0986 25.165 89.8929 26.4605C89.597 26.4089 89.3643 26.4089 89.1473 26.4089C88.3034 26.4089 87.5062 26.6191 87.0118 26.7272V26.1948C87.0118 25.0608 86.7431 23.4967 86.2652 22.9662C86.2088 22.9117 86.1299 22.8883 86.056 22.8883C85.8379 22.8883 85.5771 22.9905 85.287 23.1511C84.9658 23.3108 84.6485 23.4714 84.6485 23.5745C84.6485 23.6252 84.6485 23.6787 84.7283 23.8101C84.9152 24.0816 85.4194 24.6063 85.6014 25.8541C84.6991 24.9528 83.6713 24.5527 82.3261 24.5527C80.7347 24.5527 80.2559 25.2652 80.2559 25.9845C80.2559 27.3608 82.0828 28.049 84.3896 28.049C84.8121 28.049 85.287 27.9692 85.7611 27.8611C85.7611 28.2855 85.8146 28.6612 85.8146 28.9766C85.8146 29.4272 85.8915 29.7728 86.1864 29.7728C86.6351 29.7728 86.9018 28.8685 86.9524 27.574C87.7729 27.3608 88.6217 27.1778 89.339 27.1778C89.6817 27.1778 90.1099 27.2255 90.5294 27.3073ZM85.3143 27.0425C84.8685 27.0951 84.5969 27.0951 84.1249 27.0951C83.0892 27.0951 82.3262 26.696 82.3262 26.1188C82.3262 25.749 82.5091 25.5339 83.0386 25.5339C83.8874 25.5339 84.5716 26.1188 85.3143 27.0425Z" fill="#D51900"></path>
</g>
<defs>
<clipPath id="clip0_2635_50621">
<rect width="146" height="26.4777" fill="white" transform="translate(11 13.0625)"></rect>
</clipPath>
</defs>
</svg>