<svg width="168" height="52" viewBox="0 0 168 52" fill="none" xmlns="http://www.w3.org/2000/svg">
<g clip-path="url(#clip0_2635_50616)">
<path d="M47.0253 38.0002C45.4909 38.2696 43.9295 38.3504 42.3144 38.5656L37.3879 24.1366V39.1849C35.8535 39.3463 34.4537 39.5617 33 39.777V12.2109H37.092L42.6912 27.8517V12.2109H47.0253V38.0002ZM55.5051 22.3059C57.1743 22.3059 59.7317 22.2252 61.2661 22.2252V26.5323C59.3546 26.5323 57.1204 26.5323 55.5051 26.6131V33.0201C58.0357 32.8587 60.5662 32.6431 63.1235 32.5623V36.7078L51.1978 37.6502V12.2109H63.1235V16.5181H55.5051V22.3059ZM79.1409 16.5182H74.6722V36.3313C73.2185 36.3313 71.7648 36.3313 70.3652 36.385V16.5182H65.8965V12.2109H79.1411L79.1409 16.5182ZM86.14 22.0099H92.0356V26.317H86.14V36.0891H81.9133V12.2109H93.9469V16.5181H86.14V22.0099ZM100.946 32.3202C103.396 32.3739 105.872 32.5626 108.268 32.697V36.9504C104.419 36.708 100.569 36.466 96.6389 36.385V12.2109H100.946V32.3202ZM111.902 37.2466C113.275 37.3274 114.729 37.4082 116.129 37.5695V12.2109H111.902V37.2466ZM135 12.2109L129.535 25.321L135 39.777C133.385 39.5617 131.769 39.2655 130.154 38.9963L127.059 31.0281L123.909 38.3504C122.348 38.081 120.84 38.0002 119.279 37.7848L124.824 25.1594L119.817 12.2109H124.447L127.274 19.4524L130.289 12.2109L135 12.2109Z" fill="#D81F26"></path>
</g>
<defs>
<clipPath id="clip0_2635_50616">
<rect width="102" height="27.5661" fill="white" transform="translate(33 12.2109)"></rect>
</clipPath>
</defs>
</svg>