<svg width="168" height="52" viewBox="0 0 168 52" fill="none" xmlns="http://www.w3.org/2000/svg">
<g clip-path="url(#clip0_2635_50626)">
<path d="M8.89979 20.9002C8.89979 20.324 9.42141 20.0355 9.99916 20.0355C10.7796 20.0355 13.6598 20.9712 15.2387 21.1614V23.2143L14.1463 24.3082L15.2387 25.4006V28.2332C14.6968 28.5061 14.0762 28.6667 13.3932 28.6667C12.3187 28.6667 11.4073 28.2566 10.7484 27.5993L13.6793 26.3659L13.6809 21.3158L10.0187 22.8767C10.5434 21.7516 11.412 21.1014 11.6973 20.9088L11.5375 20.6702C9.07288 21.0772 7.62109 23.265 7.62109 25.3047C7.62109 28.3806 10.2198 30.4928 12.9402 30.4928C15.6371 30.4928 17.761 28.4741 17.761 25.9347C17.761 25.8809 17.7594 25.8271 17.7571 25.7725H17.439C17.1139 26.6091 16.5166 27.413 15.7057 27.9603V25.4177L16.8152 24.3082L15.7057 23.1972V21.1941C15.7104 21.1941 15.7151 21.1941 15.7198 21.1941C16.9213 21.1941 17.9778 20.5556 17.9778 19.3556C17.9778 18.1378 16.7614 17.2824 15.206 17.4017V17.7198C15.7166 17.7892 16.4745 17.8672 16.4745 18.4504C16.4745 18.8169 16.1307 18.9868 15.7736 18.9868C14.2571 18.9868 12.0544 17.7978 10.6486 17.7978C9.03078 17.7978 8.01172 18.8379 8.01172 20.0316C8.01172 20.9002 8.52476 21.5123 9.14617 21.7859L9.30601 21.5474C9.08146 21.4413 8.89979 21.2183 8.89979 20.9002ZM9.79956 23.4482L11.5344 22.7153V26.7822L10.4373 27.25C9.90482 26.567 9.60307 25.6953 9.60307 24.7706C9.60307 24.2833 9.67715 23.8428 9.79956 23.4482ZM21.8014 28.563V24.465L22.7261 23.5987L23.714 24.4174V28.6574C23.714 30.3735 23.1097 31.9913 21.8809 31.9913V32.3913C22.0517 32.4155 22.224 32.428 22.3963 32.428C25.2897 32.428 25.8683 30.3704 25.8667 28.6574V23.9075L26.5832 23.3258L26.2901 22.9641L25.6328 23.4966L23.8738 22.0245L21.8014 23.9667V17.8001H21.4825L18.7715 19.7127V19.9529C19.5683 20.1954 19.5683 20.5595 19.5683 20.83V28.404L18.4526 29.1213L18.7356 29.5049L19.3734 29.1065L21.0841 30.5567L23.1565 29.1213L22.8579 28.7463L22.3409 29.1057L21.8014 28.563ZM27.1423 29.4807L27.8783 28.8835L30.3468 30.7158L33.7751 27.926L33.5358 27.5268L31.7027 28.9615L29.709 27.6071V26.8898L33.2972 24.6568V24.5772L31.6224 22.0245L27.6358 24.0985V28.4804L26.8491 29.119L27.1423 29.4807ZM29.709 26.3167V23.481L30.0271 23.3017L31.3799 25.2579L29.709 26.3167ZM40.3518 25.2922C40.3518 24.8759 40.7362 24.7511 41.1596 24.7511C41.2181 24.7511 41.2781 24.7511 41.3382 24.7511V27.48C41.3319 27.48 41.3265 27.48 41.321 27.48C39.9433 27.48 38.8073 28.3907 38.8073 29.7357C38.8073 31.2046 40.1281 32.0249 41.2961 31.8346L41.374 31.5235C40.7955 31.582 40.2645 31.1781 40.2645 30.6113C40.2645 30.1365 40.6388 29.8363 41.1159 29.8363C41.7249 29.8363 42.1794 30.2082 42.4991 30.5528L44.6433 28.1654L44.4039 27.926L43.8464 28.563C43.1385 27.8543 42.3486 27.6032 41.8029 27.519V20.8908C41.8496 20.9641 41.8949 21.0382 41.9393 21.1138L47.5118 30.5528H48.141V20.77C49.2809 20.6873 50.2625 19.9396 50.2625 18.7919C50.2625 18.5042 50.1947 18.2165 50.0606 17.9623L49.8337 17.9561C49.783 18.4551 49.3721 18.8278 48.8201 18.8278C48.226 18.8278 47.8018 18.466 47.5281 18.1167L47.1999 18.112L45.1282 20.5057L45.3668 20.7458L46.0023 20.0355C46.3984 20.4106 46.9878 20.7076 47.6755 20.7677C47.6755 22.596 47.6755 24.4252 47.6755 26.2536L43.6772 19.5591C43.2312 18.8098 42.7892 17.9436 41.5775 17.9436C40.4275 17.9436 39.4957 18.9315 39.4957 20.1392C39.4957 20.2905 39.5106 20.4425 39.541 20.5907L39.8599 20.6702C39.8599 20.1073 40.1257 19.7806 40.5998 19.7806C40.8446 19.7806 41.0941 19.9638 41.3382 20.2437V22.4986C41.3304 22.4986 41.3233 22.4986 41.3155 22.4986C40.2084 22.4986 39.311 23.3313 39.311 24.3753C39.311 25.1597 39.8466 25.7468 40.4859 25.916L40.5694 25.6821C40.4384 25.6018 40.3518 25.4552 40.3518 25.2922ZM49.9873 29.4807L50.7233 28.8835L53.1918 30.7158L56.6201 27.926L56.3808 27.5268L54.5477 28.9615L52.554 27.6071V26.8898L56.1422 24.6568V24.5772L54.4674 22.0245L50.4808 24.0985V28.4804L49.6941 29.119L49.9873 29.4807ZM52.554 26.3167V23.481L52.8722 23.3017L54.2249 25.2579L52.554 26.3167ZM62.9707 22.0167L61.2289 23.4592L61.9642 24.1289V29.1922L61.6499 29.377L60.3354 28.5147L60.3377 25.1885C60.3401 23.6042 60.1701 23.1676 59.1502 22.5134C58.8017 22.2904 58.3378 21.9809 58.3378 21.4429C58.3378 20.9945 58.6887 20.6983 59.059 20.5907L58.9772 20.2741C57.7117 20.3872 56.7706 21.2916 56.7706 22.2335C56.7706 22.9719 57.3226 23.3781 57.7086 23.7781C58.0938 24.1765 58.2622 24.5149 58.2622 25.3304V28.8656L57.5137 29.4722L57.8061 29.8339L58.3214 29.416L60.2231 30.7891L62.3174 29.6297L63.9259 30.7891L67.7861 28.7416L67.7893 23.5098L68.7709 22.7146L68.4769 22.3528L67.7635 22.9313L66.7195 22.0167L64.9761 23.4592L65.7129 24.1289V29.165L65.3527 29.377L64.0381 28.5147L64.0413 23.9987L64.6596 23.4966L62.9707 22.0167ZM82.3664 33.8127C82.3664 34.1628 82.1075 34.4037 81.8066 34.4638L81.8869 34.7826C82.0974 34.7437 82.3048 34.6813 82.5021 34.5947C83.1609 34.3086 83.8455 33.7152 83.8455 32.7858C83.8455 31.607 82.7562 31.0144 81.476 31.0144C79.2944 31.0144 77.7225 31.8097 76.631 31.8097C75.9901 31.8097 75.364 31.4845 75.364 30.8132C75.364 29.9829 76.2731 29.6757 77.0684 29.6757C78.7073 29.6757 80.3166 30.4015 81.6483 30.4015C83.3948 30.4015 83.7348 29.2227 83.734 28.1077L83.7215 20.0293L84.5682 19.3424L84.2743 18.9806L83.6506 19.4858L81.9649 18.0325L79.7076 19.8601C79.7076 19.3034 79.7076 18.7467 79.7076 18.19H79.2312C79.2312 21.9918 79.2312 25.7951 79.2312 29.5992C78.8921 29.5369 78.5295 29.4293 78.1514 29.3396V20.3404C78.1514 18.9595 77.4403 18.0972 76.2403 18.0972C74.9546 18.0972 74.136 19.1061 74.0946 20.1844H74.4931C74.4931 19.6745 74.7379 19.386 75.1854 19.386C75.7725 19.386 75.8162 20.1197 75.8162 20.3739V23.2907C75.7725 23.2868 75.7296 23.2861 75.6868 23.2861C74.578 23.2861 73.6806 24.118 73.6806 25.162C73.6806 25.9464 74.2178 26.535 74.8572 26.7027L74.9398 26.4703C74.8096 26.3885 74.7231 26.2434 74.7231 26.0789C74.7231 25.6626 75.1059 25.5386 75.5308 25.5386C75.6259 25.5386 75.7211 25.5386 75.8162 25.5386V29.4004C74.8205 29.7973 74.2092 30.6783 74.2092 31.6381C74.2092 32.7445 75.0498 33.8291 76.7167 33.8291C78.227 33.8291 80.3213 33.104 81.4386 33.104C81.915 33.104 82.3664 33.3316 82.3664 33.8127ZM79.7076 29.6515C79.7076 28.3478 79.7076 27.0442 79.7076 25.7405C80.2176 25.3741 80.9216 25.3975 81.4082 25.7951C81.4082 26.284 81.4082 26.7713 81.4082 27.2602C81.4082 29.1229 80.7173 29.6515 79.7341 29.6515C79.7256 29.6515 79.7154 29.6515 79.7076 29.6515ZM79.7076 20.4433L80.5092 19.8125L81.4082 20.5875C81.4082 21.4733 81.4082 22.359 81.4082 23.2432C80.9208 23.6432 80.2168 23.6634 79.7076 23.2978C79.7076 22.3465 79.7076 21.3953 79.7076 20.4433ZM79.7076 23.7827C80.2222 24.1422 80.9193 24.1157 81.4082 23.7289C81.4082 24.2552 81.4082 24.7831 81.4082 25.3094C80.8975 24.9016 80.202 24.9156 79.7076 25.2579C79.7076 24.7659 79.7076 24.2739 79.7076 23.7827ZM87.9209 28.0055V23.2214L89.8351 24.4969V29.2811L87.9209 28.0055ZM85.2099 29.4269L85.9007 28.8671L88.2398 30.5567L91.9083 28.3244V23.7788L89.5154 21.9458L85.7682 24.0985C85.7682 25.5238 85.7682 26.9491 85.7682 28.3743L84.9168 29.0652L85.2099 29.4269ZM97.8542 28.4687L96.9568 29.0807L96.3003 28.563V23.6588C96.8375 24.1773 97.4223 24.3449 97.7864 24.3449C98.2807 24.3449 99.246 24.0829 99.4409 22.0198H98.945C98.8016 22.2428 98.5372 22.4315 98.1918 22.4315C97.8854 22.4315 97.6016 22.2686 97.4418 22.0198H97.2695L96.1101 23.3367L94.8914 22.0245L92.6584 23.5402L92.8977 23.8599L93.5355 23.4615L94.0938 24.1788V28.563L93.0568 29.2811L93.2969 29.6L93.8552 29.2016L95.6828 30.637L98.1653 28.8398L97.8542 28.4687ZM100.614 20.83V28.404L99.497 29.1213L99.7372 29.4402L100.374 29.0418L102.129 30.5567L104.202 29.1213L103.962 28.8024L103.484 29.2016L102.846 28.563V17.8001H102.527L99.8159 19.7127V19.9529C100.245 20.0831 100.614 20.2609 100.614 20.83ZM106.223 24.493C107.567 24.493 108.098 23.2861 108.271 22.1056H107.951C107.764 22.4487 107.379 22.7434 106.876 22.7434C106.373 22.7434 105.986 22.4502 105.799 22.1056H105.639L103.168 25.9316L106.437 30.7158L108.988 29.0418L108.669 28.6441L107.951 29.1213L104.683 24.2583L104.843 23.9387C105.183 24.2529 105.625 24.493 106.223 24.493ZM115.874 20.9002C115.874 20.324 116.395 20.0355 116.973 20.0355C117.754 20.0355 120.634 20.9712 122.213 21.1614V23.2143L121.12 24.3082L122.213 25.4006V28.2332C121.671 28.5061 121.05 28.6667 120.367 28.6667C119.293 28.6667 118.381 28.2566 117.722 27.5993L120.653 26.3659L120.655 21.3158L116.993 22.8767C117.517 21.7516 118.386 21.1014 118.671 20.9088L118.511 20.6702C116.047 21.0772 114.595 23.265 114.595 25.3047C114.595 28.3806 117.194 30.4928 119.914 30.4928C122.611 30.4928 124.735 28.4741 124.735 25.9347C124.735 25.8809 124.733 25.8271 124.731 25.7725H124.413C124.088 26.6091 123.491 27.413 122.68 27.9603V25.4177L123.789 24.3082L122.68 23.1972V21.1941C122.684 21.1941 122.689 21.1941 122.694 21.1941C123.895 21.1941 124.952 20.5556 124.952 19.3556C124.952 18.1378 123.735 17.2824 122.18 17.4017V17.7198C122.691 17.7892 123.448 17.8672 123.448 18.4504C123.448 18.8169 123.105 18.9868 122.747 18.9868C121.231 18.9868 119.028 17.7978 117.623 17.7978C116.005 17.7978 114.986 18.8379 114.986 20.0316C114.986 20.9002 115.499 21.5123 116.12 21.7859L116.28 21.5474C116.055 21.4413 115.874 21.2183 115.874 20.9002ZM116.773 23.4482L118.508 22.7153V26.7822L117.411 27.25C116.879 26.567 116.577 25.6953 116.577 24.7706C116.577 24.2833 116.651 23.8428 116.773 23.4482ZM129.96 28.6441L129.242 29.1213L128.684 28.563V23.5402L127.409 22.0245L125.175 23.5402L125.416 23.8599L126.053 23.4615L126.611 24.1788V28.563L125.575 29.2811L125.814 29.6L126.372 29.2016L127.967 30.637L130.358 28.9615L129.96 28.6441ZM126.078 19.7806L127.497 21.3961L129.085 20.0012L127.667 18.3857L126.078 19.7806ZM138.532 29.3225L137.668 28.5521V24.1032L138.543 23.573L139.697 24.6232V28.7229L138.998 29.3614L140.646 30.7961L143.115 29.1946L143.104 28.5856L142.387 29.1229L141.61 28.3307V24.1507L142.432 23.4841L142.138 23.1223L141.598 23.5613L139.87 22.0721L137.584 23.4989L135.928 22.0721L133.743 23.4365L132.519 22.0721L130.207 23.6673L130.445 23.9855L131.084 23.587L131.721 24.3043V28.7229L131.084 29.2811L132.997 30.7961L134.592 29.3614L133.874 28.7229V24.0127L134.601 23.573L135.755 24.6232V28.7229L135.056 29.3614L136.704 30.7961L138.532 29.3225ZM143.55 29.4807L144.287 28.8835L146.755 30.7158L150.183 27.926L149.944 27.5268L148.111 28.9615L146.117 27.6071V26.8898L149.705 24.6568V24.5772L148.031 22.0245L144.044 24.0985V28.4804L143.257 29.119L143.55 29.4807ZM146.117 26.3167V23.481L146.435 23.3017L147.788 25.2579L146.117 26.3167ZM151.763 31.4198L151.925 30.984C151.793 30.9083 151.689 30.7688 151.689 30.5707C151.689 30.1653 152.083 29.9415 152.472 29.9415C153.063 29.9415 153.48 30.3212 153.704 30.7197L156.989 28.7244V26.2123L155.555 25.1511C156.493 24.2872 156.876 23.3406 157.006 22.0697H156.536C156.536 22.0713 156.536 22.0713 156.536 22.0721L156.53 22.0697C156.487 22.465 156.134 22.7629 155.698 22.7629C155.135 22.7629 154.725 22.3925 154.483 22.037L151.046 24.033V26.362L152.305 27.3561C151 28.5685 150.728 29.179 150.728 29.8682C150.728 30.6487 151.189 31.1984 151.763 31.4198ZM153.92 26.5608L154.843 27.2937V29.4612C154.536 28.786 153.853 28.1818 152.9 28.1818C152.456 28.1818 152.049 28.3307 151.735 28.5802C152.142 28.0734 152.733 27.5806 153.324 27.0738L153.92 26.5608ZM153.879 25.9822L153.191 25.2805V23.113C153.532 23.9597 154.26 24.3371 154.981 24.3371C155.278 24.3371 155.562 24.2763 155.815 24.1656C155.592 24.4821 155.343 24.7246 155.105 24.9304L153.879 25.9822ZM157.824 29.2149L159.343 30.7345L160.838 29.2398L159.319 27.7202L157.824 29.2149Z" fill="black"></path>
</g>
<defs>
<clipPath id="clip0_2635_50626">
<rect width="153.6" height="17.777" fill="white" transform="translate(7.40039 17.2188)"></rect>
</clipPath>
</defs>
</svg>