<svg width="168" height="52" viewBox="0 0 168 52" fill="none" xmlns="http://www.w3.org/2000/svg">
<g clip-path="url(#clip0_2635_50631)">
<path fill-rule="evenodd" clip-rule="evenodd" d="M70.0606 16.1114C74.9817 16.1114 78.5306 19.9599 78.5306 25.4804C78.5306 30.993 74.9817 34.8416 70.0606 34.8416C65.1474 34.8416 61.5985 30.993 61.5985 25.4804C61.5985 19.9599 65.1474 16.1114 70.0606 16.1114ZM70.0606 18.9741C66.9928 18.9741 64.8398 21.5293 64.8398 25.4804C64.8398 29.4236 66.9928 31.9867 70.0606 31.9867C73.1284 31.9867 75.2814 29.4236 75.2814 25.4804C75.2814 21.5293 73.1284 18.9741 70.0606 18.9741ZM83.8382 33.1697V39.1239H80.794V21.277H83.8382V22.6965C84.6741 21.7028 85.936 21.0246 87.6631 21.0246C91.3855 21.0246 93.5148 24.1634 93.5148 27.9331C93.5148 31.7028 91.3855 34.8416 87.6631 34.8416C85.936 34.8416 84.6741 34.1634 83.8382 33.1697ZM83.7593 28.3353C83.7593 30.7959 85.1789 32.1839 87.0558 32.1839C89.2561 32.1839 90.447 30.4646 90.447 27.9331C90.447 25.4016 89.2561 23.6823 87.0558 23.6823C85.1789 23.6823 83.7593 25.0467 83.7593 27.5545V28.3353ZM95.2814 27.9252C95.2814 24.0293 97.7656 21.0167 101.622 21.0167C105.471 21.0167 107.529 23.9268 107.529 27.5782V28.5877H98.1993C98.428 30.8668 99.7924 32.2549 101.748 32.2549C103.247 32.2549 104.437 31.4978 104.84 30.1334L107.45 31.1192C106.512 33.4457 104.406 34.8416 101.748 34.8416C97.947 34.8416 95.2814 32.0261 95.2814 27.9252ZM98.3492 26.3085H104.461C104.437 24.8416 103.523 23.5719 101.598 23.5719C100.021 23.5719 98.8066 24.5104 98.3492 26.3085ZM109.808 21.2691H112.852V22.6886C113.609 21.8054 114.8 21.0167 116.527 21.0167C119.311 21.0167 120.983 22.941 120.983 25.8038V34.5577H117.947V26.687C117.947 25.0467 117.284 23.8558 115.613 23.8558C114.24 23.8558 112.852 24.8653 112.852 26.7659V34.5577H109.808V21.2691ZM133.57 16.3874L140.463 34.5656H137.19L135.62 30.4094H127.766L126.22 34.5656H122.994L129.895 16.3874H133.57ZM128.83 27.5782H134.556L131.669 19.9836L128.83 27.5782ZM142.434 16.4426H145.683V34.6129H142.434V16.4426ZM54.1695 23.0593C56.6458 25.8038 57.0717 29.8337 55.2184 33.0356C54.0196 35.1413 51.9613 36.6239 49.5875 37.1129C48.4518 40.6302 45.1632 43.0119 41.4645 43.004C39.0355 43.0198 36.7247 41.9867 35.1159 40.1728C31.496 40.9536 27.7894 39.3053 25.944 36.0955C24.7137 34.0056 24.4535 31.4899 25.2185 29.187C22.7421 26.4505 22.3163 22.4126 24.1696 19.2186C25.3762 17.1129 27.4266 15.6224 29.8005 15.1413C30.9361 11.624 34.2247 9.24229 37.9235 9.25018C40.3525 9.23441 42.6632 10.2675 44.272 12.0814C47.8919 11.3006 51.5985 12.9489 53.4439 16.1587C54.6663 18.2486 54.9345 20.7643 54.1695 23.0672V23.0593ZM47.7894 34.4631V26.6161C47.7894 26.5845 47.7657 26.553 47.7342 26.5451L44.8951 24.9047V34.3763C44.8951 34.7706 44.6821 35.1413 44.3351 35.3306L37.608 39.2186C37.5528 39.2501 37.4582 39.2974 37.4109 39.329C38.5465 40.2753 39.9818 40.7958 41.4645 40.788C44.9582 40.788 47.7894 37.9567 47.7894 34.4631ZM27.8604 34.9836C29.6112 38.0119 33.4834 39.0451 36.5118 37.3022L43.3099 33.3826C43.3414 33.359 43.3572 33.3274 43.3493 33.2959V30.0151L35.1396 34.747C34.7926 34.952 34.3746 34.952 34.0355 34.747L27.3005 30.8668C27.2374 30.8353 27.1506 30.7801 27.1033 30.7485C26.8509 32.2075 27.1191 33.706 27.8604 34.9836ZM26.086 20.3148C24.3431 23.3432 25.3841 27.2075 28.4046 28.9583L35.2027 32.8779C35.2342 32.8937 35.2736 32.8937 35.3052 32.87L38.1443 31.2296L29.9345 26.4978C29.5875 26.3006 29.3746 25.9299 29.3825 25.5356V17.7754V17.5388C27.9945 18.0514 26.8273 19.0293 26.086 20.3148ZM49.4534 25.7486C49.7925 25.9457 50.0055 26.3085 50.0055 26.7028V34.6996C51.3935 34.187 52.5607 33.2091 53.2941 31.9236C55.0449 28.9031 54.0118 25.0309 50.9834 23.2801L44.1774 19.3606C44.1459 19.3448 44.1064 19.3527 44.0828 19.3684L41.2358 21.0088L49.4534 25.7486ZM52.2846 21.4899C52.537 20.0388 52.2689 18.5404 51.5275 17.2628C49.7846 14.2344 45.9124 13.1934 42.884 14.9442L36.078 18.8637C36.0544 18.8795 36.0386 18.911 36.0386 18.9505V22.2312L44.2563 17.4915C44.5954 17.2943 45.0212 17.2943 45.3604 17.4915L52.0875 21.3716C52.1506 21.4031 52.2373 21.4583 52.2846 21.4899ZM34.4929 27.3337L34.5008 17.8621C34.4929 17.4678 34.7058 17.105 35.0528 16.9079L41.7799 13.0278C41.8351 12.9883 41.9298 12.941 41.9771 12.9174C40.8414 11.971 39.4061 11.4505 37.9314 11.4505C34.4298 11.4505 31.5986 14.2817 31.5907 17.7754V25.6224C31.5986 25.6539 31.6143 25.6855 31.6459 25.7012L34.4929 27.3337ZM36.0386 28.2328L39.6979 30.3385L43.3572 28.2328V24.0135L39.6979 21.9L36.0386 24.0135V28.2328Z" fill="black"></path>
</g>
<defs>
<clipPath id="clip0_2635_50631">
<rect width="123.367" height="34" fill="white" transform="translate(22.3164 9.125)"></rect>
</clipPath>
</defs>
</svg>