<svg width="168" height="52" viewBox="0 0 168 52" fill="none" xmlns="http://www.w3.org/2000/svg">
<g clip-path="url(#clip0_2635_50651)">
<path fill-rule="evenodd" clip-rule="evenodd" d="M106.543 10.0435C106.17 10.1652 105.88 10.3786 105.672 10.6833C105.339 11.1699 105.364 9.86635 105.364 26.5021C105.364 43.1379 105.339 41.8343 105.672 42.3209C105.847 42.5774 105.979 42.6906 106.309 42.8663C106.49 42.963 106.584 42.9786 106.991 42.9786C107.438 42.9786 107.477 42.9703 107.76 42.8169C108.096 42.6352 108.278 42.4388 108.466 42.0593L108.594 41.8V26.5021V11.2043L108.466 10.945C108.278 10.5643 108.095 10.3684 107.76 10.1898C107.499 10.0501 107.413 10.0289 107.061 10.0177C106.841 10.0107 106.608 10.0223 106.543 10.0435ZM41.2412 20.6564C36.7807 20.9464 33.7575 23.1319 33.2937 26.4017C33.1655 27.3056 33.3082 28.3529 33.6796 29.2335C34.1244 30.2883 35.0164 31.2215 36.1821 31.8517C37.4297 32.5261 38.9026 32.9137 42.1929 33.4334C45.8089 34.0046 47.1789 34.4087 47.9126 35.1206C48.336 35.5313 48.5089 35.9577 48.5089 36.5907C48.5089 37.249 48.2992 37.7476 47.8086 38.2558C47.1084 38.981 46.0098 39.4495 44.4557 39.6856C43.7952 39.7859 42.1236 39.7989 41.415 39.7091C39.3721 39.4503 37.3956 38.7459 35.6762 37.6639C35.168 37.344 34.9487 37.2791 34.4734 37.3076C34.0155 37.3351 33.712 37.4802 33.41 37.8161C33.1333 38.1238 33 38.4743 33 38.894C33 39.7104 33.3217 40.073 34.7594 40.8778C36.8002 42.0201 39.0853 42.7305 41.4475 42.9569C42.2429 43.0331 44.2994 42.9918 44.9743 42.8861C46.9973 42.569 48.4985 41.9498 49.7031 40.9356C51.148 39.719 51.9138 37.8719 51.7249 36.0593C51.4766 33.6778 50.0321 32.0876 47.302 31.1903C46.2709 30.8515 45.1481 30.6205 42.4993 30.2022C39.8982 29.7915 38.6566 29.4812 37.7504 29.0151C36.8815 28.5683 36.4906 27.9636 36.4891 27.0646C36.4867 25.5177 38.0018 24.3941 40.6607 23.9709C41.3068 23.868 43.1182 23.8558 43.7957 23.9497C45.731 24.218 47.1542 24.7727 48.5378 25.7981C49.1376 26.2426 49.3905 26.3365 49.897 26.3026C50.4766 26.2638 50.9183 25.9771 51.2004 25.4568C51.3506 25.1799 51.3621 25.1282 51.3621 24.7336C51.3621 24.3471 51.3479 24.2795 51.2048 23.9887C51.0202 23.6133 50.7366 23.3572 49.8602 22.7743C47.834 21.4267 45.4329 20.7189 42.6171 20.6394C42.1893 20.6274 41.5701 20.635 41.2412 20.6564ZM65.2929 20.6565C60.4853 21.0378 56.455 24.4041 55.2749 29.0243C54.9931 30.1274 54.9449 30.5426 54.9463 31.8528C54.9478 33.1688 55.0149 33.6986 55.321 34.815C56.35 38.5671 59.3415 41.554 63.1383 42.6201C64.1809 42.9129 64.7157 42.9776 66.0943 42.9775C67.1945 42.9775 67.4111 42.9647 67.9093 42.8706C70.4287 42.3949 72.6069 41.145 74.1618 39.2827C75.0309 38.2418 75.2581 37.7539 75.1492 37.1616C75.1187 36.996 75.0535 36.7814 75.0041 36.6847C74.7031 36.0946 74.0696 35.7441 73.4147 35.8052C72.8397 35.8589 72.5509 36.0605 72.0245 36.7756C69.406 40.3327 64.3179 40.8028 60.8626 37.807C58.6906 35.9238 57.7114 32.9246 58.3435 30.0911C59.1764 26.3578 62.5837 23.7233 66.3771 23.8797C67.5122 23.9264 68.3554 24.1412 69.3707 24.6422C70.4171 25.1586 71.4172 26.008 72.0616 26.9276C72.5342 27.6021 72.9285 27.8421 73.5674 27.8444C73.9011 27.8456 73.9826 27.8275 74.2603 27.6907C74.8383 27.4062 75.1604 26.8881 75.1604 26.2428C75.1604 25.7884 75.0371 25.5024 74.5712 24.8757C74.1239 24.2741 73.1218 23.2519 72.5744 22.8388C70.7246 21.4431 68.7067 20.7216 66.4243 20.64C66.0743 20.6274 65.5651 20.6349 65.2929 20.6565ZM88.9586 20.6384C86.8623 20.7764 85.0155 21.3925 83.325 22.5177C80.8934 24.1364 79.1474 26.7248 78.5704 29.5664C78.4055 30.3785 78.3514 30.9404 78.3514 31.841C78.3514 34.3792 79.1572 36.705 80.7481 38.7593C81.1464 39.2736 82.0799 40.2071 82.5943 40.6055C84.5328 42.1068 86.7248 42.9183 89.0293 42.9879C89.7789 43.0106 89.8489 43.0053 90.1112 42.906C90.5751 42.7303 90.9869 42.2699 91.1007 41.8C91.1647 41.5362 91.1334 41.0895 91.0321 40.8188C90.9018 40.4705 90.5918 40.1325 90.2484 39.9643C90.0093 39.8473 89.8933 39.8246 89.3599 39.791C88.5886 39.7423 88.3823 39.7165 87.8315 39.5994C86.8527 39.3915 85.7687 38.9095 84.9049 38.298C84.3341 37.894 83.4634 37.0242 83.0537 36.4487C82.6745 35.916 82.1805 34.945 81.9808 34.34C81.2188 32.0308 81.5419 29.5302 82.8658 27.4921C84.397 25.1349 87.0509 23.7568 89.8307 23.8754C92.118 23.973 94.1716 25.0915 95.5156 26.9716C96.0483 27.7169 96.527 28.8165 96.7097 29.7144C96.86 30.4535 96.8778 31.1607 96.8781 36.4357L96.8786 41.7257L96.9805 41.9982C97.1198 42.3704 97.5103 42.7609 97.8825 42.9002C98.6729 43.1959 99.5466 42.8627 99.9212 42.1227L100.061 41.8471L100.075 36.2607C100.085 32.4521 100.073 30.5092 100.038 30.1557C99.7933 27.7037 98.7302 25.4697 96.9753 23.72C95.0381 21.7887 92.5778 20.7283 89.8307 20.6408C89.4936 20.6301 89.1012 20.629 88.9586 20.6384ZM124.269 20.6565C122.092 20.8291 120.098 21.5844 118.352 22.8977C116.052 24.6277 114.519 27.1707 114.034 30.0614C113.91 30.804 113.866 32.1035 113.941 32.8428C114.262 36.0087 115.847 38.868 118.31 40.7211C119.822 41.8591 121.457 42.5654 123.326 42.8877C123.927 42.9914 125.663 43.0314 126.358 42.9576C129.27 42.6477 131.84 41.4082 133.822 39.3576C134.561 38.593 134.664 38.3995 134.663 37.7693C134.662 37.3721 134.647 37.2932 134.532 37.0723C134.357 36.7398 134.076 36.4666 133.751 36.3159C133.53 36.2127 133.418 36.192 133.084 36.192C132.474 36.192 132.317 36.2837 131.458 37.1384C130.626 37.9662 130.108 38.3492 129.202 38.8055C126.728 40.0522 123.937 40.1141 121.605 38.9738C119.383 37.8872 117.809 35.8586 117.283 33.4028C117.187 32.9518 117.174 32.7622 117.174 31.8293C117.174 30.6422 117.22 30.3144 117.512 29.4014C118.053 27.7084 119.182 26.2088 120.658 25.2214C122.08 24.2703 123.759 23.7967 125.419 23.8788C126.52 23.9331 127.328 24.1438 128.346 24.6423C129.887 25.3959 131.169 26.7541 131.838 28.3407C131.982 28.6827 132.283 29.6437 132.283 29.7625C132.283 29.7836 129.986 29.8065 127.18 29.8133L122.076 29.8257L121.861 29.932C121.51 30.1047 121.269 30.3442 121.1 30.687C120.962 30.9688 120.945 31.045 120.945 31.404C120.945 31.74 120.965 31.8493 121.07 32.072C121.229 32.411 121.518 32.7005 121.857 32.8594L122.124 32.9843H128.299H134.475L134.711 32.8682C135.059 32.697 135.406 32.3288 135.528 32.0028C135.715 31.5037 135.654 30.0871 135.393 28.8828C135.158 27.7969 134.566 26.3903 133.945 25.4414C132.436 23.1354 130.057 21.478 127.408 20.8879C126.441 20.6724 125.211 20.5817 124.269 20.6565Z" fill="#040404"></path>
</g>
<defs>
<clipPath id="clip0_2635_50651">
<rect width="102.63" height="33" fill="white" transform="translate(33 10)"></rect>
</clipPath>
</defs>
</svg>