<svg width="168" height="52" viewBox="0 0 168 52" fill="none" xmlns="http://www.w3.org/2000/svg">
<g clip-path="url(#clip0_2635_50636)">
<mask id="mask0_2635_50636" style="mask-type:luminance" maskUnits="userSpaceOnUse" x="21" y="11" width="126" height="36">
<path d="M21.9727 46.1016H146.027V11.0331H21.9727" fill="white"></path>
</mask>
<g mask="url(#mask0_2635_50636)">
<path d="M40.3396 17.2989L38.0957 28.5033L35.576 17.2989H31.2021L28.6824 28.5033L26.4384 17.2989H21.9727L25.6136 34.4141H30.8124L33.354 23.0494L35.8971 34.4141H40.9804L44.5995 17.2989H40.3396Z" fill="#0053E2"></path>
<path d="M50.0617 20.4511C47.2909 20.4511 45.3434 21.3867 44.6339 22.0485V25.6992C45.4587 24.9689 47.1989 23.8965 49.4895 23.8965C50.9099 23.8965 51.4355 24.285 51.4355 25.0836C51.4355 25.7692 50.7027 26.0427 48.6646 26.4759C45.5726 27.1151 43.7871 28.2336 43.7871 30.9034C43.7871 33.3678 45.4134 34.8047 47.7725 34.8047C49.7474 34.8047 50.9277 33.8912 51.5741 32.6647V34.4162H55.8341V26.0183C55.8341 22.1615 53.8194 20.4494 50.0631 20.4494M49.4661 32.044C48.4587 32.044 47.9084 31.4267 47.9084 30.5834C47.9084 29.4875 48.7786 29.0543 49.8779 28.666C50.4515 28.4511 51.0238 28.2285 51.4122 27.8901V29.7846C51.4122 31.2214 50.656 32.044 49.4661 32.044Z" fill="#0053E2"></path>
<path d="M57.4258 34.4141H61.8462V17.2989H57.4258" fill="#0053E2"></path>
<path d="M79.5858 20.4937C77.4408 20.4937 76.056 21.7782 75.3313 23.4886C74.943 21.6562 73.6501 20.4937 71.8454 20.4937C69.8006 20.4937 68.4666 21.6825 67.7914 23.3518V20.8822H63.4395V34.4141H67.86V26.9059C67.86 25.0571 68.479 24.0085 69.806 24.0085C70.882 24.0085 71.2485 24.7388 71.2485 25.8794V34.4141H75.669V26.9059C75.669 25.0571 76.2879 24.0085 77.6151 24.0085C78.6911 24.0085 79.0574 24.7388 79.0574 25.8794V34.4141H83.478V25.2638C83.478 22.4111 82.1262 20.4937 79.5844 20.4937" fill="#0053E2"></path>
<path d="M90.716 20.4511C87.9452 20.4511 85.9977 21.3867 85.2882 22.0485V25.6992C86.113 24.9689 87.8532 23.8965 90.1438 23.8965C91.5642 23.8965 92.0898 24.285 92.0898 25.0836C92.0898 25.7692 91.357 26.0427 89.3189 26.4759C86.2269 27.1151 84.4414 28.2336 84.4414 30.9034C84.4414 33.3678 86.0677 34.8047 88.4268 34.8047C90.4018 34.8047 91.582 33.8912 92.2284 32.6647V34.4162H96.4884V26.0183C96.4884 22.1615 94.4737 20.4494 90.7174 20.4494M90.1204 32.044C89.113 32.044 88.5627 31.4267 88.5627 30.5834C88.5627 29.4875 89.4329 29.0543 90.5322 28.666C91.1058 28.4511 91.6781 28.2285 92.0665 27.8901V29.7846C92.0665 31.2214 91.3103 32.044 90.1204 32.044Z" fill="#0053E2"></path>
<path d="M102.327 24.7054V20.8822H97.998V34.4141H102.419V28.6639C102.419 26.0162 104.067 25.3086 105.648 25.3086C106.175 25.3086 106.679 25.377 106.908 25.4453V20.791C104.421 20.6718 102.91 22.2542 102.328 24.7045" fill="#0053E2"></path>
<path d="M115.336 24.3046V20.8821H112.518V18.2579H108.098V29.8956C108.098 33.1586 109.953 34.6875 112.907 34.6875C114.28 34.6875 115.013 34.414 115.334 34.2089V30.8091C115.082 30.9914 114.67 31.1291 114.143 31.1291C113.158 31.1526 112.517 30.7188 112.517 29.28V24.3046H115.334" fill="#0053E2"></path>
</g>
<mask id="mask1_2635_50636" style="mask-type:luminance" maskUnits="userSpaceOnUse" x="21" y="11" width="126" height="36">
<path d="M21.9727 46.1016H146.027V11.0331H21.9727" fill="white"></path>
</mask>
<g mask="url(#mask1_2635_50636)">
<path d="M138.249 24.652C138.871 24.5248 144.366 22.0156 144.856 21.7333C145.976 21.0899 146.36 19.6616 145.712 18.5456C145.066 17.4305 143.633 17.0473 142.513 17.6927C142.023 17.9739 137.095 21.4632 136.673 21.9349C136.19 22.4758 136.107 23.25 136.465 23.8673C136.822 24.4835 137.537 24.7984 138.249 24.652Z" fill="#FFC223"></path>
<path d="M144.857 30.2079C144.367 29.9264 138.87 27.4172 138.25 27.2901C137.538 27.1437 136.824 27.4594 136.466 28.0747C136.109 28.692 136.193 29.4651 136.674 30.0071C137.096 30.4786 142.024 33.9671 142.514 34.2494C143.634 34.8939 145.065 34.5116 145.713 33.3956C146.359 32.2804 145.977 30.854 144.857 30.2079Z" fill="#FFC223"></path>
<path d="M132.81 30.1806C132.096 30.1806 131.465 30.6399 131.236 31.3263C131.036 31.9269 130.469 37.9235 130.469 38.4873C130.469 39.7752 131.517 40.8203 132.81 40.8203C134.103 40.8203 135.151 39.7752 135.151 38.4873C135.151 37.9226 134.585 31.9252 134.384 31.3263C134.155 30.639 133.524 30.1806 132.81 30.1806Z" fill="#FFC223"></path>
<path d="M127.368 27.2897C126.746 27.4168 121.251 29.926 120.761 30.2075C119.641 30.8517 119.257 32.28 119.905 33.3952C120.551 34.5112 121.984 34.8943 123.104 34.249C123.594 33.9667 128.522 30.4782 128.943 30.0067C129.426 29.4648 129.51 28.6916 129.152 28.0743C128.795 27.4581 128.08 27.1433 127.368 27.2897Z" fill="#FFC223"></path>
<path d="M123.103 17.6919C121.983 17.0485 120.552 17.4299 119.904 18.5459C119.258 19.6619 119.641 21.0883 120.76 21.7336C121.25 22.0151 126.747 24.5252 127.367 24.6521C128.08 24.7985 128.793 24.4821 129.151 23.8666C129.508 23.2503 129.424 22.4761 128.943 21.9344C128.521 21.4627 123.593 17.9742 123.103 17.6919Z" fill="#FFC223"></path>
<path d="M132.81 11.1259C131.517 11.1259 130.469 12.1708 130.469 13.4587C130.469 14.0233 131.036 20.0201 131.236 20.6188C131.465 21.3071 132.096 21.7656 132.81 21.7656C133.524 21.7656 134.155 21.3063 134.384 20.6188C134.585 20.0193 135.151 14.0225 135.151 13.4587C135.151 12.1708 134.103 11.1259 132.81 11.1259Z" fill="#FFC223"></path>
</g>
</g>
<defs>
<clipPath id="clip0_2635_50636">
<rect width="124.055" height="29.7" fill="white" transform="translate(21.9727 11.125)"></rect>
</clipPath>
</defs>
</svg>