<svg width="48" height="49" viewBox="0 0 48 49" fill="none" xmlns="http://www.w3.org/2000/svg">
<path d="M32.2852 18.0248C31.8875 18.0155 31.5025 18.1645 31.2147 18.439L21.2446 27.9506L16.7864 23.6901C16.4988 23.4152 16.1138 23.2659 15.7161 23.2748C15.3184 23.2838 14.9405 23.4505 14.6656 23.738C14.3908 24.0256 14.2414 24.4106 14.2504 24.8083C14.2594 25.206 14.426 25.5839 14.7136 25.8588L20.2075 31.1088C20.4864 31.3753 20.8573 31.5241 21.2431 31.5243C21.6289 31.5246 22 31.3761 22.2792 31.1099L33.2853 20.6099C33.4278 20.4739 33.5422 20.3112 33.6219 20.1311C33.7015 19.9509 33.7449 19.7568 33.7496 19.5599C33.7542 19.363 33.7201 19.1671 33.649 18.9834C33.578 18.7996 33.4714 18.6317 33.3354 18.4892C33.1995 18.3466 33.0367 18.2322 32.8565 18.1525C32.6763 18.0728 32.4821 18.0294 32.2852 18.0248V18.0248ZM9 7.52441C7.36091 7.52441 6 8.88533 6 10.5244V21.5305C6 29.8299 9.59177 35.5341 13.5015 39.1321C17.3843 42.7053 21.5321 44.288 23.0171 44.7823C23.6514 45.0154 24.3486 45.0154 24.9829 44.7823C26.4679 44.288 30.6157 42.7053 34.4985 39.1321C38.4082 35.5341 42 29.8299 42 21.5305V10.5244C42 8.88533 40.6391 7.52441 39 7.52441H9ZM9 10.5244H39V21.5305C39 28.9811 35.9075 33.7585 32.4672 36.9246C29.0285 40.0891 25.2066 41.5498 24 41.9493C22.7934 41.5498 18.9715 40.0891 15.5328 36.9246C12.0925 33.7585 9 28.9811 9 21.5305V10.5244Z" fill="#214224"></path>
</svg>