<svg width="16" height="16" viewBox="0 0 16 16" fill="none" xmlns="http://www.w3.org/2000/svg">
<g clip-path="url(#clip0_143_629)">
<path d="M12.25 0H3.75C1.67893 0 0 1.67893 0 3.75V12.25C0 14.3211 1.67893 16 3.75 16H12.25C14.3211 16 16 14.3211 16 12.25V3.75C16 1.67893 14.3211 0 12.25 0Z" fill="#F6D1D0"/>
<path d="M3.714 12.0012H5.8568V4.66025L5.20021 4.23206C4.2501 3.61283 3 4.30617 3 5.4524V11.2774C3 11.6776 3.32021 12.002 3.71481 12.002" stroke="#FA3D3A" stroke-width="0.7" stroke-linecap="round" stroke-linejoin="round"/>
<path d="M3 5.45242V6.42079L5.8568 8.28423L7.9996 9.68243L10.1424 8.28423L13 6.42079V5.4516C13 4.30537 11.7491 3.61204 10.7982 4.23291L10.1432 4.6611L7.9996 6.05847L5.8568 4.66028L5.20021 4.23209C4.2501 3.61286 3 4.3062 3 5.45242Z" stroke="#FA3D3A" stroke-width="0.7" stroke-linecap="round" stroke-linejoin="round"/>
<path d="M10.1423 12.0012H12.2851C12.3788 12.0016 12.4716 11.9831 12.5582 11.9468C12.6448 11.9105 12.7235 11.8572 12.7899 11.7899C12.8562 11.7226 12.9088 11.6426 12.9447 11.5545C12.9806 11.4664 12.9991 11.372 12.9991 11.2766V5.4516C12.9991 4.30537 11.749 3.61204 10.7981 4.23291L10.1431 4.6611L10.1423 12.0012Z" stroke="#FA3D3A" stroke-width="0.7" stroke-linecap="round" stroke-linejoin="round"/>
</g>
<defs>
<clipPath id="clip0_143_629">
<rect width="16" height="16" fill="white"/>
</clipPath>
</defs>
</svg>
