<svg width="16" height="16" viewBox="0 0 16 16" fill="none" xmlns="http://www.w3.org/2000/svg">
<g clip-path="url(#clip0_143_588)">
<path d="M12.25 0H3.75C1.67893 0 0 1.67893 0 3.75V12.25C0 14.3211 1.67893 16 3.75 16H12.25C14.3211 16 16 14.3211 16 12.25V3.75C16 1.67893 14.3211 0 12.25 0Z" fill="#FBDFF5"/>
<path d="M3.5 7.5C3.5 5.6145 3.5 4.6715 4.086 4.086C4.672 3.5005 5.6145 3.5 7.5 3.5H8.5C10.3855 3.5 11.3285 3.5 11.914 4.086C12.4995 4.672 12.5 5.6145 12.5 7.5V8.5C12.5 10.3855 12.5 11.3285 11.914 11.914C11.328 12.4995 10.3855 12.5 8.5 12.5H7.5C5.6145 12.5 4.6715 12.5 4.086 11.914C3.5005 11.328 3.5 10.3855 3.5 8.5V7.5Z" stroke="#E34575" stroke-width="0.8"/>
<path d="M10.25 5.40039C10.4433 5.40039 10.5996 5.5567 10.5996 5.75C10.5996 5.9433 10.4433 6.09961 10.25 6.09961C10.0567 6.09961 9.90039 5.9433 9.90039 5.75C9.90039 5.5567 10.0567 5.40039 10.25 5.40039Z" fill="black" stroke="#E34575" stroke-width="0.8"/>
<path d="M8 9.5C8.82843 9.5 9.5 8.82843 9.5 8C9.5 7.17157 8.82843 6.5 8 6.5C7.17157 6.5 6.5 7.17157 6.5 8C6.5 8.82843 7.17157 9.5 8 9.5Z" stroke="#E34575" stroke-width="0.8"/>
</g>
<defs>
<clipPath id="clip0_143_588">
<rect width="16" height="16" fill="white"/>
</clipPath>
</defs>
</svg>
