<svg width="16" height="16" viewBox="0 0 16 16" fill="none" xmlns="http://www.w3.org/2000/svg">
<g clip-path="url(#clip0_143_607)">
<path d="M12.25 0H3.75C1.67893 0 0 1.67893 0 3.75V12.25C0 14.3211 1.67893 16 3.75 16H12.25C14.3211 16 16 14.3211 16 12.25V3.75C16 1.67893 14.3211 0 12.25 0Z" fill="#D9FFDD"/>
<path d="M11.5427 4.25501C11.0819 3.79207 10.5332 3.425 9.9284 3.17519C9.32362 2.92539 8.67492 2.79786 8.0201 2.80001C5.27638 2.80001 3.0402 5.02501 3.0402 7.755C3.0402 8.63 3.27136 9.48 3.70352 10.23L3 12.8L5.63819 12.11C6.36683 12.505 7.18593 12.715 8.0201 12.715C10.7638 12.715 13 10.49 13 7.76C13 6.43501 12.4824 5.19001 11.5427 4.25501ZM8.0201 11.875C7.27638 11.875 6.54774 11.675 5.90955 11.3L5.75879 11.21L4.19095 11.62L4.60804 10.1L4.50754 9.945C4.09425 9.28853 3.87484 8.52964 3.87437 7.755C3.87437 5.48501 5.73367 3.63501 8.01507 3.63501C9.1206 3.63501 10.1608 4.06501 10.9397 4.84501C11.3254 5.22694 11.6311 5.68128 11.839 6.18167C12.0469 6.68206 12.1529 7.21855 12.1508 7.76C12.1608 10.03 10.3015 11.875 8.0201 11.875ZM10.2915 8.795C10.1658 8.735 9.55276 8.435 9.44221 8.39C9.32663 8.35 9.24623 8.33 9.1608 8.45C9.07538 8.575 8.8392 8.855 8.76884 8.935C8.69849 9.02 8.62311 9.03 8.49749 8.965C8.37186 8.905 7.96985 8.77 7.49749 8.35C7.12563 8.02 6.8794 7.615 6.80402 7.49C6.73367 7.365 6.79397 7.3 6.8593 7.235C6.91457 7.18 6.98492 7.09 7.04523 7.02C7.10553 6.95 7.13065 6.895 7.17085 6.815C7.21106 6.73 7.19095 6.66 7.1608 6.6C7.13065 6.54 6.8794 5.93001 6.77889 5.68001C6.67839 5.44001 6.57286 5.47001 6.49749 5.46501H6.25628C6.17085 5.46501 6.0402 5.49501 5.92462 5.62001C5.81407 5.74501 5.49246 6.04501 5.49246 6.655C5.49246 7.265 5.9397 7.855 6 7.935C6.0603 8.02 6.8794 9.27 8.12563 9.805C8.42211 9.935 8.65327 10.01 8.83417 10.065C9.13065 10.16 9.40201 10.145 9.61809 10.115C9.8593 10.08 10.3568 9.815 10.4573 9.525C10.5628 9.235 10.5628 8.99 10.5276 8.935C10.4925 8.88 10.4171 8.855 10.2915 8.795Z" fill="#46C656"/>
</g>
<defs>
<clipPath id="clip0_143_607">
<rect width="16" height="16" fill="white"/>
</clipPath>
</defs>
</svg>
